<?xml version="1.0" encoding="UTF-8"?>
<svg width="75px" height="12px" viewBox="0 0 75 12" version="1.1" xmlns="http://www.w3.org/2000/svg" xmlns:xlink="http://www.w3.org/1999/xlink">
    <title>logo</title>
    <defs>
        <polygon id="path-1" points="0 12 75 12 75 0 0 0"></polygon>
    </defs>
    <g id="页面-1" stroke="none" stroke-width="1" fill="none" fill-rule="evenodd">
        <g id="NDES" transform="translate(-20.000000, -38.000000)">
            <g id="logo" transform="translate(20.000000, 38.000000)">
                <path d="M41.1322953,5.14741304 L42.0146659,5.14741304 L42.0146659,4.68828635 L41.1322953,4.68828635 L41.1322953,5.14741304 Z M41.1322953,4.16349324 L42.0146659,4.16349324 L42.0146659,3.70463567 L41.1322953,3.70463567 L41.1322953,4.16349324 Z M41.1322953,3.11444527 L42.0146659,3.11444527 L42.0146659,2.6555877 L41.1322953,2.6555877 L41.1322953,3.11444527 Z M41.9410345,6 L43.6324461,6 L43.6324461,5.60653973 L44,5.60653973 L44,5.01634932 L43.6324461,5.01634932 L43.6324461,2.720985 L44,2.720985 L44,2 L39.0736315,2 L39.0736315,2.6555877 L39.3678556,2.6555877 L39.3678556,5.14741304 L39,5.14741304 L39,5.73760344 L41.9410345,5.67193702 L41.9410345,6 Z" id="Fill-1" fill="#3F3A3A"></path>
                <polygon id="Fill-2" fill="#3F3A3A" points="45.7357906 6 45.9619018 5.74182444 46.1130556 6 47.9241134 6 46.7923184 4.58069641 48 3.16112803 48 2 44.2264209 2 44.2264209 2.709387 46.4906303 2.709387 45.9619018 3.3546935 45.6602137 2.96756256 44.3019978 2.96756256 44.3019978 3.61260426 45.0565278 4.58069641 44 6"></polygon>
                <g id="编组">
                    <path d="M53.1005786,3.09514205 L51.5016225,3.09514205 L51.5712416,3.71815341 C51.5712416,3.71815341 51.7101944,4.20252841 51.2930506,4.20252841 L50.667335,4.20252841 L51.1538125,1.9184375 L49.2769508,1.9184375 L48.7901879,4.82582386 L52.2662911,4.89485795 C52.2662911,4.89485795 53.3088652,4.82582386 53.2395315,4.13349432 C53.1701977,3.44144886 53.1005786,3.09514205 53.1005786,3.09514205" id="Fill-3" fill="#3F3A3A"></path>
                    <mask id="mask-2" fill="white">
                        <use xlink:href="#path-1"></use>
                    </mask>
                    <g id="Clip-6"></g>
                    <path d="M50.5979441,8.21761364 L51.5018508,8.21761364 L51.5018508,7.11022727 L50.5979441,7.11022727 L50.5979441,8.21761364 Z M50.5979441,6.48693182 L51.5018508,6.48693182 L51.5018508,5.86420455 L50.5979441,5.86420455 L50.5979441,6.48693182 Z M48.9290837,6.41789773 L39.9607775,6.34857955 L39.9607775,7.11022727 L42.880784,7.11022727 L42.880784,10.2943182 L45.036122,10.2943182 L45.036122,7.11022727 L48.9290837,7.11022727 L48.9290837,10.2943182 L50.5979441,10.2943182 L50.5979441,8.840625 L51.5018508,8.840625 L51.5018508,9.25596591 C51.5018508,9.25596591 51.5711846,9.67159091 51.0844217,9.67159091 L51.0844217,10.2943182 L52.266234,10.2943182 C52.266234,10.2943182 53.1005216,10.2943182 53.1005216,9.39431818 L53.1005216,5.24119318 L48.9290837,5.24119318 L48.9290837,6.41789773 Z" id="Fill-5" fill="#3F3A3A" mask="url(#mask-2)"></path>
                    <polygon id="Fill-7" fill="#3F3A3A" mask="url(#mask-2)" points="42.532974 7.38701705 40.5867785 7.38701705 39.8218246 8.63303977 41.7683054 8.63303977"></polygon>
                    <polygon id="Fill-8" fill="#3F3A3A" mask="url(#mask-2)" points="39.7522056 10.2251705 41.7683054 10.2251705 42.602593 8.90982955 40.5867785 8.90982955"></polygon>
                    <polygon id="Fill-9" fill="#3F3A3A" mask="url(#mask-2)" points="47.6777379 7.38701705 45.5920189 7.38701705 45.3138279 8.28673295 45.9395436 10.2250852 48.0255479 10.2250852 47.3995469 8.28673295"></polygon>
                    <polygon id="Fill-10" fill="#3F3A3A" mask="url(#mask-2)" points="57.202369 5.31017045 55.5337938 5.31017045 55.5337938 3.78744318 57.202369 3.37210227 57.202369 2.74909091 55.5337938 3.16443182 55.5337938 1.91869318 53.5176939 1.91869318 53.5176939 5.93318182 57.202369 5.93318182"></polygon>
                    <path d="M58.4537433,9.67139205 L55.534022,9.67139205 L55.534022,8.21769886 C55.534022,8.21769886 57.4805029,8.07934659 58.4537433,5.93332386 L58.5233623,5.93332386 L58.4537433,9.67139205 Z M60.7480341,1.91855114 L58.7319342,1.91855114 C58.7319342,1.91855114 58.175267,4.75633523 57.5501219,6.00264205 C56.9244062,7.24866477 55.534022,7.38701705 55.534022,7.38701705 L55.534022,6.34866477 L53.5176368,6.34866477 L53.5176368,10.2941193 L60.5394622,10.2941193 L60.5394622,4.06428977 L60.1919375,4.06428977 C60.3308903,3.78730114 60.7480341,1.91855114 60.7480341,1.91855114 L60.7480341,1.91855114 Z" id="Fill-11" fill="#3F3A3A" mask="url(#mask-2)"></path>
                    <polygon id="Fill-12" fill="#3F3A3A" mask="url(#mask-2)" points="65.5450451 4.61798295 66.2403798 4.61798295 66.2403798 3.92565341 64.2242799 3.92565341 64.2242799 1.91855114 62.138561 1.91855114 62.138561 3.92565341 60.8871296 3.92565341 60.8871296 4.61798295 62.0686566 4.61798295 60.7481768 10.2941193 62.6946576 10.2941193 63.7375171 6.07167614 63.667898 10.2941193 68.0476225 10.2941193 68.0476225 9.67139205 65.5450451 9.67139205"></polygon>
                    <polygon id="Fill-13" fill="#3F3A3A" mask="url(#mask-2)" points="66.2402372 3.71826705 65.8927124 2.12622159 64.5713767 2.12622159 64.849853 3.71826705"></polygon>
                    <path d="M68.9517003,5.44857955 L69.7163689,5.44857955 L69.7163689,3.78721591 L68.9517003,3.78721591 L68.9517003,5.44857955 Z M68.9517003,7.66392045 L69.7163689,7.66392045 L69.7163689,6.14119318 L68.9517003,6.14119318 L68.9517003,7.66392045 Z M71.8018025,6.14119318 L72.6360901,6.14119318 L72.6360901,7.24857955 C72.6360901,7.24857955 72.6360901,7.66392045 72.3581844,7.66392045 L71.8018025,7.66392045 L71.8018025,6.14119318 Z M71.8018025,5.44886364 L72.6360901,5.44886364 L72.6360901,3.7875 L71.8018025,3.7875 L71.8018025,5.44886364 Z M71.8018025,9.67159091 L71.8018025,8.21761364 L73.470663,8.21761364 C73.470663,8.21761364 74.5828562,8.21761364 74.5828562,7.31761364 L74.5828562,3.16448864 L71.8018025,3.16448864 L71.8018025,1.91875 L69.7163689,1.91875 L69.7163689,3.16448864 L66.9353151,3.16448864 L66.9353151,8.21761364 L69.7163689,8.21761364 L69.7163689,10.2943182 L75,10.2943182 L75,9.67159091 L71.8018025,9.67159091 Z" id="Fill-14" fill="#3F3A3A" mask="url(#mask-2)"></path>
                    <polygon id="Fill-15" fill="#00AE83" mask="url(#mask-2)" points="11.0138801 2.56857955 9.53789865 9.40579545 11.7839697 9.40579545 12.5540594 6.01914773 14.7359326 9.40579545 16.2763972 9.40579545 16.5971015 7.93619318 13.1315553 2.56857955"></polygon>
                    <polygon id="Fill-16" fill="#E73830" mask="url(#mask-2)" points="15.5704199 2.56857955 15.0568366 4.74102273 16.5973012 7.10551136 17.6238972 2.56857955"></polygon>
                    <polygon id="Fill-17" fill="#00AE83" mask="url(#mask-2)" points="17.880746 2.56857955 17.4955585 4.23022727 18.2017355 6.97767045 17.7523501 9.40579545 19.6774316 9.40579545 20.0626191 7.16914773 23.0787799 2.56857955 21.0253025 2.56857955 19.6774316 4.93278409 18.9715399 2.56857955"></polygon>
                    <polygon id="Fill-18" fill="#00AE83" mask="url(#mask-2)" points="21.6029126 9.40590909 23.592192 9.40590909 24.0415774 7.23346591 26.9935403 2.56869318 24.875865 2.56869318 23.5282794 4.93289773 23.078894 2.95193182 21.6029126 5.18829545 22.0520127 7.04170455"></polygon>
                    <path d="M33.5808171,3.4375 C33.8784101,3.82755682 34.0533138,4.24375 34.0886939,4.68295455 C34.3463416,7.87244318 27.1875606,11.0480114 18.0994183,11.7755682 C16.9766681,11.8653409 15.8767438,11.9133523 14.8107731,11.9230114 C15.7300872,11.9732955 16.6725126,12 17.6331988,12 C27.3715947,12 35.2662264,9.31363636 35.2662264,6 C35.2662264,5.08323864 34.661054,4.21448864 33.5808171,3.4375" id="Fill-19" fill="#00AE83" mask="url(#mask-2)"></path>
                    <path d="M17.1668651,0.224545455 C18.2899007,0.134772727 19.389825,0.0864772727 20.4555104,0.0768181818 C19.5364815,0.0265340909 18.5940561,0.000113636364 17.6330847,0.000113636364 C7.89468879,0.000113636364 5.70648142e-05,2.68619318 5.70648142e-05,5.99982955 C5.70648142e-05,6.916875 0.605514744,7.78505682 1.68575168,8.56232955 C1.38787335,8.17255682 1.21296969,7.75636364 1.17758951,7.31715909 C0.920227194,4.12738636 8.07872281,0.952102273 17.1668651,0.224545455" id="Fill-20" fill="#E73830" mask="url(#mask-2)"></path>
                </g>
            </g>
        </g>
    </g>
</svg>