<?xml version="1.0" encoding="UTF-8"?>
<svg width="83px" height="59px" viewBox="0 0 83 59" version="1.1" xmlns="http://www.w3.org/2000/svg" xmlns:xlink="http://www.w3.org/1999/xlink">
    <title>视频</title>
    <defs>
        <path d="M2.472,42.948 L3.192,42.492 C2.976,42.048 2.508,41.436 2.052,40.992 L1.368,41.388 C1.8,41.856 2.256,42.516 2.472,42.948 Z M5.76,47.88 L5.76,42.336 L9.444,42.336 L9.444,47.88 L10.332,47.88 L10.332,41.544 L4.896,41.544 L4.896,47.88 L5.76,47.88 Z M2.64,51.912 L2.64,46.776 C3.06,47.316 3.564,48 3.804,48.36 L4.368,47.652 C4.14,47.388 3.312,46.428 2.868,45.936 C3.432,45.132 3.924,44.22 4.26,43.308 L3.78,42.984 L3.612,43.02 L0.288,43.02 L0.288,43.836 L3.18,43.836 C2.484,45.348 1.212,46.848 0,47.676 C0.132,47.844 0.324,48.288 0.396,48.54 C0.864,48.192 1.332,47.76 1.788,47.268 L1.788,51.912 L2.64,51.912 Z M4.308,51.936 C6.096,50.988 7.032,49.728 7.512,48.444 L7.512,50.736 C7.512,51.516 7.836,51.744 8.652,51.744 L9.744,51.744 C10.764,51.744 10.908,51.264 11.016,49.38 C10.788,49.32 10.5,49.2 10.284,49.032 C10.224,50.748 10.164,51.06 9.756,51.06 L8.784,51.06 C8.436,51.06 8.34,50.976 8.34,50.64 L8.34,47.688 L7.74,47.688 C7.92,46.956 7.98,46.26 7.98,45.6 L7.98,43.248 L7.116,43.248 L7.116,45.576 C7.116,47.436 6.756,49.704 3.744,51.264 C3.924,51.408 4.212,51.744 4.308,51.936 Z M22.566667,49.104 L22.566667,45.468 L24.774667,45.468 L24.774667,44.676 L22.770667,44.676 L22.770667,43.212 L24.498667,43.212 L24.498667,42.456 L22.770667,42.456 L22.770667,40.968 L21.978667,40.968 L21.978667,44.676 L20.898667,44.676 L20.898667,42.012 L20.166667,42.012 L20.166667,44.676 L19.278667,44.676 L19.278667,45.468 L21.750667,45.468 L21.750667,49.104 L22.566667,49.104 Z M26.046667,49.344 L26.046667,44.412 L28.974667,44.412 L28.974667,49.32 L29.778667,49.32 L29.778667,43.728 L27.618667,43.728 C27.774667,43.356 27.954667,42.888 28.110667,42.456 L30.114667,42.456 L30.114667,41.664 L24.966667,41.664 L24.966667,42.456 L27.246667,42.456 C27.126667,42.864 26.958667,43.356 26.814667,43.728 L25.266667,43.728 L25.266667,49.344 L26.046667,49.344 Z M24.546667,51.96 C27.642667,51.072 27.870667,49.428 27.894667,45 L27.150667,45 C27.114667,49.176 26.994667,50.544 24.114667,51.324 C24.270667,51.48 24.474667,51.768 24.546667,51.96 Z M19.890667,49.044 C20.394667,48.384 20.862667,47.388 21.138667,46.404 L20.382667,46.248 C20.154667,47.124 19.746667,48.012 19.242667,48.624 C19.434667,48.72 19.746667,48.924 19.890667,49.044 Z M19.854667,51.96 C22.542667,51.012 23.994667,49.272 24.666667,46.56 L23.910667,46.368 C23.286667,48.852 21.906667,50.472 19.374667,51.276 C19.566667,51.456 19.758667,51.744 19.854667,51.96 Z M29.790667,51.948 L30.318667,51.384 C29.814667,50.856 28.782667,50.04 27.966667,49.476 L27.474667,49.968 C28.266667,50.568 29.298667,51.42 29.790667,51.948 Z M40.477334,51.756 C40.777334,51.612 40.897334,51.372 40.897334,50.88 L40.897334,47.232 C41.317334,47.076 41.749334,46.908 42.157334,46.74 L42.001334,45.948 L40.897334,46.344 L40.897334,44.196 L42.169334,44.196 L42.169334,43.368 L40.897334,43.368 L40.897334,40.968 L40.057334,40.968 L40.057334,43.368 L38.569334,43.368 L38.569334,44.196 L40.057334,44.196 L40.057334,46.644 C39.421334,46.872 38.845334,47.064 38.389334,47.22 L38.581334,48.096 C39.037334,47.928 39.529334,47.736 40.057334,47.544 L40.057334,50.88 C40.057334,51.06 39.997334,51.096 39.853334,51.096 C39.721334,51.108 39.241334,51.108 38.725334,51.096 C38.845334,51.348 38.953334,51.708 38.989334,51.924 C39.745334,51.936 40.201334,51.9 40.477334,51.756 Z M48.709334,47.304 C48.853334,47.388 48.985334,47.46 49.117334,47.532 C49.249334,47.316 49.513334,47.028 49.681334,46.872 C48.697334,46.464 47.593334,45.66 46.885334,44.82 L49.345334,44.82 L49.345334,44.076 L47.617334,44.076 C47.893334,43.608 48.205334,43.008 48.469334,42.468 L47.689334,42.216 C47.497334,42.756 47.125334,43.548 46.813334,44.076 L46.129334,44.076 L46.129334,42.12 C47.137334,42.024 48.085334,41.88 48.841334,41.7 L48.313334,41.04 C46.921334,41.376 44.413334,41.604 42.349334,41.724 C42.433334,41.904 42.529334,42.192 42.553334,42.384 C43.417334,42.348 44.389334,42.288 45.313334,42.204 L45.313334,44.076 L43.789,44.076 L42.205334,44.076 L42.205334,44.82 L44.593334,44.82 C43.885334,45.732 42.733334,46.572 41.665334,47.016 C41.845334,47.16 42.097334,47.472 42.217334,47.652 C43.345334,47.136 44.557334,46.152 45.313334,45.06 L45.313334,47.04 L46.129334,47.04 L46.129334,45.012 C46.777334,45.888 47.749334,46.752 48.709334,47.304 Z M43.789334,44.076 L44.533334,43.8 C44.389334,43.452 44.089334,42.876 43.837334,42.444 L43.117334,42.66 C43.369334,43.116 43.657334,43.716 43.789334,44.076 Z M45.313334,49.008 L43.693334,49.008 L43.693334,47.988 L45.313334,47.988 L45.313334,49.008 Z M47.881334,49.008 L46.081334,49.008 L46.081334,47.988 L47.881334,47.988 L47.881334,49.008 Z M47.881334,50.712 L46.081334,50.712 L46.081334,49.68 L47.881334,49.68 L47.881334,50.712 Z M45.313334,50.712 L43.693334,50.712 L43.693334,49.68 L45.313334,49.68 L45.313334,50.712 Z M48.709334,47.304 L42.889334,47.304 L42.889334,51.912 L43.693334,51.912 L43.693334,51.384 L47.881334,51.384 L47.881334,51.84 L48.709334,51.84 L48.709334,47.304 Z M60.404001,42.804 L61.208001,42.54 C61.088001,42.108 60.812001,41.448 60.560001,40.944 L59.792001,41.172 C60.020001,41.676 60.296001,42.36 60.404001,42.804 Z M62.984001,51.948 C64.172001,51.336 65.108001,50.568 65.828001,49.62 C66.452001,50.592 67.256001,51.372 68.264001,51.9 C68.408001,51.648 68.684001,51.312 68.888001,51.132 C67.832001,50.64 67.016001,49.836 66.368001,48.816 C67.112001,47.52 67.604001,45.948 67.904001,44.016 L68.780001,44.016 L68.780001,43.188 L65.036001,43.188 C65.228001,42.516 65.384001,41.808 65.528001,41.1 L64.628001,40.956 C64.256001,43.008 63.596001,45.012 62.624001,46.272 C62.828001,46.428 63.176001,46.776 63.320001,46.944 C63.632001,46.5 63.932001,46.008 64.184001,45.456 C64.484001,46.692 64.856001,47.82 65.348001,48.792 C64.652001,49.8 63.716001,50.592 62.468001,51.168 C62.636001,51.36 62.900001,51.744 62.984001,51.948 Z M58.292001,51.912 C59.876001,50.22 60.116001,48.192 60.116001,46.224 L60.116001,46.14 L61.736001,46.14 C61.664001,49.428 61.580001,50.58 61.376001,50.844 C61.292001,50.976 61.184001,51.012 61.028001,51.012 C60.836001,51.012 60.392001,51 59.900001,50.952 C60.032001,51.192 60.116001,51.54 60.140001,51.78 C60.644001,51.816 61.124001,51.816 61.424001,51.78 C61.736001,51.744 61.940001,51.648 62.132001,51.396 C62.432001,50.976 62.516001,49.656 62.600001,45.732 C62.6068581,45.6634286 62.6097969,45.54 62.6110564,45.4467988 L62.611966,45.3403032 C62.612001,45.3298776 62.612001,45.324 62.612001,45.324 L60.116001,45.324 L60.116001,43.728 L63.140001,43.728 L63.140001,42.9 L57.848001,42.9 L57.848001,43.728 L59.264001,43.728 L59.264001,46.212 C59.264001,47.904 59.084001,49.788 57.632001,51.336 C57.848001,51.48 58.136001,51.72 58.292001,51.912 Z M65.864001,47.916 C65.336001,46.824 64.976001,45.54 64.724001,44.136 C64.736001,44.1 64.748001,44.052 64.772001,44.016 L67.016001,44.016 C66.788001,45.552 66.428001,46.836 65.864001,47.916 Z" id="path-1"></path>
        <filter x="-13.7%" y="-83.4%" width="127.9%" height="269.7%" filterUnits="objectBoundingBox" id="filter-2">
            <feMorphology radius="0.5" operator="dilate" in="SourceAlpha" result="shadowSpreadOuter1"></feMorphology>
            <feOffset dx="0" dy="0" in="shadowSpreadOuter1" result="shadowOffsetOuter1"></feOffset>
            <feGaussianBlur stdDeviation="2.5" in="shadowOffsetOuter1" result="shadowBlurOuter1"></feGaussianBlur>
            <feColorMatrix values="0 0 0 0 1   0 0 0 0 1   0 0 0 0 1  0 0 0 1 0" type="matrix" in="shadowBlurOuter1"></feColorMatrix>
        </filter>
    </defs>
    <g id="页面-1" stroke="none" stroke-width="1" fill="none" fill-rule="evenodd">
        <g id="视频" transform="translate(6.516000, 0.000000)">
            <rect id="矩形备份" stroke="#FF2D83" fill-opacity="0.50122924" fill="#FFFFFF" x="0.984" y="0.5" width="69" height="35" rx="2"></rect>
            <g id="编组" transform="translate(26.484000, 9.000000)" fill="#FF2D83" fill-rule="nonzero">
                <path d="M8.21824548,3.27786499 L5.44117515,0 L2.28755287,0 L5.06462323,3.26844583 L8.21824548,3.26844583 L8.21824548,3.27786499 Z M16.3988358,3.27786499 L13.6217654,0.00941913756 L10.4681432,0.00941913756 L13.2546273,3.27786499 L16.3988358,3.27786499 Z M12.3132475,3.27786499 L9.53617719,0.00941913756 L6.38255491,0.00941913756 L9.15962527,3.27786499 L12.3132475,3.27786499 Z M17.5849743,0 L14.5631452,0 L17.3496294,3.26844583 L18.8181818,3.26844583 L18.8181818,1.23390894 C18.808768,0.53689168 18.2815953,0 17.5849743,0 Z M1.3461731,0 L1.22379372,0 C0.527172692,0 4.4408921e-16,0.52747252 4.4408921e-16,1.22448978 L4.4408921e-16,3.26844583 L4.13265724,3.26844583 L1.3461731,0 Z M0,16.7755102 C0,17.4725275 0.52717267,18 1.22379372,18 L17.5849743,18 C18.2815953,18 18.808768,17.4725275 18.808768,16.7755102 L18.808768,4.09733124 L0,4.09733124 L0,16.7755102 Z M6.54258949,7.78021977 C6.54258949,7.0832025 7.11683116,6.75353218 7.76638319,6.75353218 C7.97348675,6.75353218 8.21824548,6.7912088 8.42534904,6.91365776 L13.085179,9.61695446 C13.6500068,9.91836732 13.8665242,10.6153846 13.5652826,11.1805337 C13.4617309,11.3877551 13.2922825,11.5478807 13.085179,11.6609105 L8.42534904,14.3642072 C8.21824548,14.4866562 8.02055573,14.5243328 7.76638319,14.5243328 C7.10741733,14.5243328 6.54258949,14.1946625 6.54258949,13.4976452 L6.54258949,7.78021977 Z" id="形状"></path>
            </g>
            <g id="视频播放备份" fill-rule="nonzero">
                <use fill="black" fill-opacity="1" filter="url(#filter-2)" xlink:href="#path-1"></use>
                <use fill="#FF2D83" xlink:href="#path-1"></use>
            </g>
        </g>
    </g>
</svg>