<?xml version="1.0" encoding="UTF-8"?>
<svg width="312px" height="202px" viewBox="0 0 312 202" version="1.1" xmlns="http://www.w3.org/2000/svg" xmlns:xlink="http://www.w3.org/1999/xlink">
    <title>移动应用</title>
    <defs>
        <path d="M33.744002,134 L33.744002,129.38 C33.744002,128.456 33.660002,127.52 33.612002,126.632 L33.660002,126.632 L34.608002,128.444 L37.812002,134 L38.952002,134 L38.952002,125.204 L37.896002,125.204 L37.896002,129.776 C37.896002,130.688 37.980002,131.672 38.040002,132.56 L37.980002,132.56 L37.044002,130.748 L33.840002,125.204 L32.688002,125.204 L32.688002,134 L33.744002,134 Z M45.774669,134 C48.426669,134 49.878669,132.356 49.878669,129.572 C49.878669,126.776 48.426669,125.204 45.726669,125.204 L43.518669,125.204 L43.518669,134 L45.774669,134 Z M45.630669,133.088 L44.634669,133.088 L44.634669,126.104 L45.630669,126.104 C47.706669,126.104 48.726669,127.34 48.726669,129.572 C48.726669,131.792 47.706669,133.088 45.630669,133.088 Z M59.137336,134 L59.137336,133.052 L55.045336,133.052 L55.045336,129.848 L58.381336,129.848 L58.381336,128.9 L55.045336,128.9 L55.045336,126.14 L59.005336,126.14 L59.005336,125.204 L53.929336,125.204 L53.929336,134 L59.137336,134 Z M65.600003,134.156 C67.436003,134.156 68.588003,133.052 68.588003,131.66 C68.588003,130.352 67.796003,129.752 66.776003,129.308 L65.516003,128.768 C64.832003,128.48 64.064003,128.156 64.064003,127.304 C64.064003,126.512 64.712003,126.008 65.708003,126.008 C66.524003,126.008 67.172003,126.332 67.712003,126.836 L68.300003,126.128 C67.676003,125.48 66.752003,125.036 65.708003,125.036 C64.112003,125.036 62.936003,126.02 62.936003,127.376 C62.936003,128.66 63.908003,129.284 64.724003,129.632 L65.996003,130.184 C66.824003,130.556 67.460003,130.844 67.460003,131.744 C67.460003,132.608 66.764003,133.184 65.612003,133.184 C64.700003,133.184 63.812003,132.752 63.176003,132.092 L62.516003,132.848 C63.284003,133.652 64.352003,134.156 65.600003,134.156 Z M74.59467,126.596 L75.19467,125.96 C74.81067,125.48 73.99467,124.712 73.34667,124.184 L72.77067,124.724 C73.41867,125.288 74.21067,126.092 74.59467,126.596 Z M75.91467,128.972 C77.63067,128.144 78.01467,126.848 78.01467,125.732 L78.01467,125.228 L80.12667,125.228 L80.12667,127.148 C80.12667,128.036 80.30667,128.384 81.12267,128.384 L82.02267,128.384 C82.26267,128.384 82.50267,128.372 82.65867,128.324 C82.62267,128.12 82.58667,127.784 82.57467,127.556 C82.43067,127.592 82.17867,127.616 82.01067,127.616 L81.18267,127.616 C81.00267,127.616 80.96667,127.508 80.96667,127.172 L80.96667,124.388 L77.17467,124.388 L77.17467,125.708 C77.17467,126.596 76.91067,127.592 75.33867,128.312 C75.50667,128.444 75.80667,128.792 75.91467,128.972 Z M73.40667,134.672 C73.59867,134.456 73.92267,134.192 76.03467,132.632 C75.92667,132.464 75.78267,132.128 75.71067,131.9 L74.39067,132.848 L74.39067,127.712 L71.84667,127.712 L71.84667,128.564 L73.52667,128.564 L73.52667,132.848 C73.52667,133.388 73.15467,133.784 72.92667,133.928 C73.09467,134.096 73.32267,134.468 73.40667,134.672 Z M82.25067,134.96 C82.37067,134.708 82.59867,134.36 82.80267,134.168 C81.65067,133.916 80.61867,133.508 79.75467,132.944 C80.77467,132.08 81.59067,130.928 82.05867,129.44 L81.50667,129.188 L81.35067,129.224 L75.90267,129.224 L75.90267,130.064 L76.51467,130.064 L76.34667,130.124 C76.83867,131.216 77.51067,132.164 78.35067,132.944 C77.46267,133.508 76.44267,133.904 75.38667,134.144 C75.55467,134.348 75.75867,134.696 75.83067,134.936 C76.97067,134.612 78.07467,134.156 79.03467,133.496 C79.93467,134.168 81.02667,134.66 82.25067,134.96 Z M79.05867,132.44 C78.26667,131.78 77.61867,130.976 77.18667,130.064 L80.93067,130.064 C80.49867,131.012 79.85067,131.804 79.05867,132.44 Z M86.265337,129.872 C87.981337,129.584 89.829337,129.068 91.437337,128.288 C92.925337,128.984 94.689337,129.452 96.525337,129.704 C96.645337,129.452 96.873337,129.08 97.065337,128.876 C95.373337,128.696 93.753337,128.324 92.373337,127.772 C93.501337,127.124 94.473337,126.296 95.109337,125.312 L94.533337,124.94 L94.377337,124.988 L90.225337,124.988 C90.465337,124.7 90.669337,124.412 90.837337,124.112 L89.889337,123.932 C89.301337,124.964 88.137337,126.152 86.421337,126.968 C86.625337,127.112 86.889337,127.4 87.021337,127.616 C87.693337,127.256 88.269337,126.872 88.785337,126.452 C89.277337,126.956 89.853337,127.4 90.513337,127.784 C89.049337,128.396 87.405337,128.816 85.869337,129.02 C86.013337,129.224 86.181337,129.62 86.265337,129.872 Z M91.437337,127.352 C90.621337,126.944 89.925337,126.464 89.409337,125.9 L89.529337,125.78 L93.657337,125.78 C93.081337,126.38 92.301337,126.908 91.437337,127.352 Z M88.437337,134.912 L88.437337,134.528 L94.389337,134.528 L94.389337,134.888 L95.325337,134.888 L95.325337,129.704 L87.537337,129.704 L87.537337,134.912 L88.437337,134.912 Z M90.981337,131.696 L88.437337,131.696 L88.437337,130.496 L90.981337,130.496 L90.981337,131.696 Z M94.389337,131.696 L91.881337,131.696 L91.881337,130.496 L94.389337,130.496 L94.389337,131.696 Z M94.389337,133.748 L91.881337,133.748 L91.881337,132.428 L94.389337,132.428 L94.389337,133.748 Z M90.981337,133.748 L88.437337,133.748 L88.437337,132.428 L90.981337,132.428 L90.981337,133.748 Z M104.692004,129.512 C107.068004,128.876 109.384004,127.604 110.404004,125.372 L109.840004,125.072 L109.684004,125.108 L107.428004,125.108 C107.716004,124.796 107.956004,124.46 108.172004,124.136 L107.272004,123.956 C106.720004,124.832 105.664004,125.864 104.188004,126.584 C104.380004,126.704 104.656004,126.992 104.788004,127.184 C105.520004,126.788 106.144004,126.344 106.684004,125.864 L109.168004,125.864 C108.784004,126.452 108.256004,126.956 107.632004,127.376 C107.272004,127.088 106.804004,126.74 106.408004,126.512 L105.748004,126.944 C106.132004,127.184 106.588004,127.52 106.912004,127.82 C106.084004,128.276 105.148004,128.612 104.224004,128.828 C104.380004,129.008 104.596004,129.296 104.692004,129.512 Z M102.868004,134.936 L102.868004,129.44 C103.216004,129.98 103.636004,130.664 103.792004,131.024 L104.320004,130.316 C104.104004,130.016 103.180004,128.84 102.868004,128.492 L102.868004,128.216 L104.332004,128.216 L104.332004,127.376 L102.868004,127.376 L102.868004,125.24 C103.384004,125.108 103.864004,124.952 104.272004,124.784 L103.720004,124.064 C102.916004,124.436 101.536004,124.796 100.336004,125 C100.456004,125.204 100.564004,125.504 100.600004,125.696 C101.056004,125.624 101.548004,125.54 102.028004,125.444 L102.028004,127.376 L100.228004,127.376 L100.228004,128.216 L101.848004,128.216 C101.440004,129.584 100.720004,131.144 100.048004,132.008 C100.204004,132.2 100.420004,132.572 100.516004,132.812 C101.056004,132.068 101.608004,130.856 102.028004,129.632 L102.028004,134.936 L102.868004,134.936 Z M104.416004,134.972 C107.356004,134.276 110.020004,132.752 111.064004,129.62 L110.500004,129.344 L110.332004,129.38 L108.268004,129.38 C108.496004,129.08 108.712004,128.768 108.904004,128.468 L107.980004,128.288 C107.392004,129.356 106.156004,130.58 104.356004,131.408 C104.548004,131.552 104.812004,131.828 104.932004,132.032 C106.012004,131.492 106.876004,130.844 107.584004,130.148 L109.924004,130.148 C109.552004,130.976 109.012004,131.66 108.352004,132.224 C107.980004,131.876 107.452004,131.48 106.984004,131.204 L106.324004,131.66 C106.792004,131.96 107.320004,132.392 107.680004,132.752 C106.600004,133.484 105.304004,133.976 103.960004,134.24 C104.128004,134.432 104.332004,134.744 104.416004,134.972 Z M119.986671,134.912 C121.738671,133.232 122.242671,130.52 122.410671,127.568 L124.198671,127.568 C124.066671,131.816 123.898671,133.388 123.586671,133.736 C123.466671,133.892 123.334671,133.928 123.130671,133.916 L122.931567,133.91552 C122.615151,133.9136 122.108271,133.904 121.570671,133.856 C121.726671,134.108 121.822671,134.468 121.846671,134.732 C122.482671,134.768 123.130671,134.78 123.502671,134.744 C123.886671,134.696 124.114671,134.6 124.366671,134.288 C124.774671,133.76 124.918671,132.068 125.074671,127.16 C125.074671,127.04 125.086671,126.716 125.086671,126.716 L122.446671,126.716 C122.470671,125.876 122.482671,125.012 122.482671,124.16 L121.606671,124.16 C121.606671,125.012 121.606671,125.876 121.570671,126.716 L119.866671,126.716 L119.866671,127.568 L121.534671,127.568 C121.390671,130.292 120.910671,132.776 119.290671,134.264 C119.518671,134.396 119.830671,134.696 119.986671,134.912 Z M119.506671,125.744 L119.506671,124.94 L114.898671,124.94 L114.898671,125.744 L119.506671,125.744 Z M114.886,133.434 C114.886671,133.424 114.886671,133.412 114.898671,133.4 L114.898671,133.448 C115.174671,133.28 115.606671,133.148 118.918671,132.416 C119.002671,132.704 119.074671,132.98 119.134671,133.196 L119.926671,132.944 C119.698671,132.104 119.170671,130.7 118.702671,129.632 L117.970671,129.836 C118.210671,130.4 118.450671,131.048 118.666671,131.66 L115.822671,132.26 C116.290671,131.18 116.734671,129.86 117.046671,128.6 L119.710671,128.6 L119.710671,127.784 L114.466671,127.784 L114.466671,128.6 L116.122671,128.6 C115.822671,129.992 115.318671,131.396 115.150671,131.792 C114.958671,132.236 114.802671,132.56 114.610671,132.608 C114.690671,132.798 114.804004,133.121333 114.860393,133.328 L114.886,133.434 Z M128.993338,134.96 C129.689338,133.748 129.953338,132.164 130.037338,130.592 L131.681338,130.592 L131.681338,134.912 L132.509338,134.912 L132.509338,129.788 L130.061338,129.788 C130.073338,129.5 130.073338,129.212 130.073338,128.936 L130.073338,128.072 L133.217338,128.072 L133.217338,127.268 L132.173338,127.268 L132.173338,123.944 L131.357338,123.944 L131.357338,127.268 L130.073338,127.268 L130.073338,124.22 L129.245338,124.22 L129.245338,128.948 C129.245338,130.748 129.137338,132.896 128.357338,134.408 C128.549338,134.528 128.861338,134.792 128.993338,134.96 Z M133.433338,134.984 C134.453338,133.28 134.597338,130.892 134.597338,128.888 L134.597338,128.264 L134.861338,128.264 C135.161338,129.86 135.641338,131.288 136.337338,132.452 C135.701338,133.256 134.933338,133.856 134.117338,134.228 C134.297338,134.396 134.525338,134.72 134.645338,134.948 C135.473338,134.528 136.193338,133.952 136.829338,133.208 C137.381338,133.94 138.053338,134.528 138.857338,134.948 C139.001338,134.708 139.253338,134.396 139.457338,134.228 C138.617338,133.844 137.921338,133.256 137.357338,132.512 C138.197338,131.264 138.809338,129.62 139.085338,127.556 L138.557338,127.412 L138.413338,127.436 L134.597338,127.436 L134.597338,125.48 C136.217338,125.36 138.017338,125.132 139.289338,124.808 L138.725338,124.064 C137.525338,124.364 135.497338,124.64 133.745338,124.784 L133.745338,128.888 C133.745338,130.664 133.637338,132.896 132.725338,134.48 C132.941338,134.588 133.265338,134.828 133.433338,134.984 Z M136.841338,131.732 C136.253338,130.748 135.845338,129.548 135.557338,128.264 L138.149338,128.264 C137.885338,129.62 137.429338,130.796 136.841338,131.732 Z M152.676005,133.016 C152.988005,132.884 153.084005,132.68 153.084005,132.236 L153.084005,126.956 L151.512005,126.956 C151.272005,126.812 150.960005,126.644 150.624005,126.488 C151.512005,126.032 152.424005,125.408 153.072005,124.772 L152.532005,124.352 L152.352005,124.4 L146.496005,124.4 L146.496005,125.108 L151.536005,125.108 C151.044005,125.468 150.432005,125.852 149.844005,126.128 C149.256005,125.876 148.632005,125.624 148.104005,125.432 L147.552005,125.936 C148.284005,126.212 149.148005,126.596 149.880005,126.956 L146.484005,126.956 L146.484005,133.136 L147.336005,133.136 L147.336005,131.132 L149.340005,131.132 L149.340005,133.088 L150.144005,133.088 L150.144005,131.132 L152.232005,131.132 L152.232005,132.224 C152.232005,132.38 152.184005,132.428 152.028005,132.428 C151.970405,132.428 151.855205,132.42992 151.701605,132.430688 L151.444805,132.430592 C151.257605,132.42944 151.041605,132.4256 150.816005,132.416 C150.924005,132.632 151.020005,132.932 151.056005,133.16 C151.860005,133.16 152.364005,133.148 152.676005,133.016 Z M144.960005,126.992 L145.608005,126.404 C145.176005,125.864 144.252005,125.024 143.544005,124.436 L142.920005,124.94 C143.640005,125.564 144.540005,126.44 144.960005,126.992 Z M149.340005,128.696 L147.336005,128.696 L147.336005,127.64 L149.340005,127.64 L149.340005,128.696 Z M152.232005,128.696 L150.144005,128.696 L150.144005,127.64 L152.232005,127.64 L152.232005,128.696 Z M143.184005,134.792 C143.784005,133.988 144.372005,133.304 144.780005,133.304 C145.056005,133.304 145.476005,133.7 145.944005,133.988 C146.784005,134.504 147.780005,134.648 149.244005,134.648 C150.528005,134.648 152.616005,134.576 153.444005,134.528 C153.468005,134.276 153.600005,133.88 153.696005,133.652 C152.472005,133.772 150.672005,133.88 149.268005,133.88 C147.936005,133.88 146.928005,133.784 146.124005,133.292 C145.704005,133.04 145.452005,132.812 145.212005,132.68 L145.212005,128.432 L142.668005,128.432 L142.668005,129.272 L144.348005,129.272 L144.348005,132.656 C143.832005,132.872 143.232005,133.412 142.620005,134.06 L143.184005,134.792 Z M152.232005,130.448 L150.144005,130.448 L150.144005,129.356 L152.232005,129.356 L152.232005,130.448 Z M149.340005,130.448 L147.336005,130.448 L147.336005,129.356 L149.340005,129.356 L149.340005,130.448 Z M165.222672,132.692 C165.642672,132.56 165.798672,132.296 165.798672,131.696 L165.798672,126.956 L167.454672,126.956 L167.454672,126.104 L165.798672,126.104 L165.798672,124.004 L164.910672,124.004 L164.910672,126.104 L160.302672,126.104 L160.302672,126.956 L164.910672,126.956 L164.910672,131.696 C164.910672,131.9 164.826672,131.972 164.586672,131.984 L164.211499,131.983301 C163.827477,131.981728 163.240826,131.976615 162.642672,131.96 C162.774672,132.212 162.918672,132.608 162.954672,132.86 C164.082672,132.86 164.814672,132.836 165.222672,132.692 Z M159.042672,126.788 L159.774672,126.272 C159.414672,125.708 158.622672,124.88 157.962672,124.28 L157.278672,124.736 C157.938672,125.348 158.706672,126.224 159.042672,126.788 Z M162.534672,130.7 L163.290672,130.244 C162.942672,129.62 162.174672,128.636 161.574672,127.904 L160.866672,128.288 C161.478672,129.032 162.198672,130.076 162.534672,130.7 Z M157.398672,134.648 C158.010672,133.832 158.586672,133.124 158.982672,133.124 C159.246672,133.124 159.642672,133.52 160.134672,133.832 C160.962672,134.36 161.958672,134.492 163.434672,134.492 C164.586672,134.492 166.686672,134.432 167.538672,134.372 C167.550672,134.096 167.694672,133.652 167.814672,133.412 C166.650672,133.532 164.862672,133.64 163.458672,133.64 C162.138672,133.64 161.106672,133.544 160.338672,133.064 C159.930672,132.812 159.678672,132.596 159.450672,132.452 L159.450672,128.432 L156.930672,128.432 L156.930672,129.272 L158.574672,129.272 L158.574672,132.392 C158.046672,132.596 157.410672,133.124 156.774672,133.808 L157.398672,134.648 Z M171.673339,134.864 C173.173339,133.004 173.617339,130.016 173.761339,127.016 L175.453339,127.016 C175.261339,131.516 175.045339,133.172 174.709339,133.556 C174.589339,133.712 174.481339,133.76 174.289339,133.76 C174.073339,133.76 173.617339,133.748 173.113339,133.7 C173.257339,133.952 173.353339,134.336 173.377339,134.612 C173.881339,134.648 174.373339,134.648 174.685339,134.6 C175.033339,134.564 175.261339,134.468 175.501339,134.144 C175.933339,133.592 176.125339,131.816 176.353339,126.608 L176.353339,126.14 L173.785339,126.14 C173.809339,125.408 173.821339,124.688 173.821339,123.992 L172.933339,123.992 C172.933339,124.676 172.933339,125.408 172.909339,126.14 L171.229339,126.14 L171.229339,127.016 L172.885339,127.016 C172.765339,129.812 172.369339,132.596 170.965339,134.264 C171.205339,134.396 171.505339,134.66 171.673339,134.864 Z M178.129339,134.744 L178.129339,133.868 L180.457339,133.868 L180.457339,134.66 L181.369339,134.66 L181.369339,125.456 L177.253339,125.456 L177.253339,134.744 L178.129339,134.744 Z M180.457339,133.004 L178.129339,133.004 L178.129339,126.32 L180.457339,126.32 L180.457339,133.004 Z M195.920006,134.348 L195.920006,133.46 L190.688006,133.46 L190.688006,128.72 L195.176006,128.72 L195.176006,127.82 L190.688006,127.82 L190.688006,124.148 L189.740006,124.148 L189.740006,133.46 L185.276006,133.46 L185.276006,134.348 L195.920006,134.348 Z M200.774673,134.948 L200.774673,134.384 L208.790673,134.384 L208.790673,134.948 L209.702673,134.948 L209.702673,124.52 L199.898673,124.52 L199.898673,134.948 L200.774673,134.948 Z M208.790673,133.556 L200.774673,133.556 L200.774673,125.36 L208.790673,125.36 L208.790673,133.556 Z M207.374673,132.476 L207.374673,129.344 L205.214673,129.344 L205.214673,127.976 L208.142673,127.976 L208.142673,127.232 L205.214673,127.232 L205.214673,125.864 L204.362673,125.864 L204.362673,127.232 L201.542673,127.232 L201.542673,127.976 L204.362673,127.976 L204.362673,129.344 L202.310673,129.344 L202.310673,132.476 L207.374673,132.476 Z M206.546673,131.768 L203.114673,131.768 L203.114673,130.052 L206.546673,130.052 L206.546673,131.768 Z M214.84534,127.916 L214.84534,126.164 L223.01734,126.164 L223.01734,127.916 L223.91734,127.916 L223.91734,125.312 L219.64534,125.312 C219.50134,124.916 219.20134,124.328 218.93734,123.884 L218.07334,124.136 C218.26534,124.484 218.48134,124.94 218.62534,125.312 L213.96934,125.312 L213.96934,127.916 L214.84534,127.916 Z M214.14934,134.96 C214.94134,134.276 215.52934,133.364 215.93734,132.248 C217.02934,134.288 218.81734,134.72 221.31334,134.72 L224.08534,134.72 C224.13334,134.456 224.27734,134.048 224.42134,133.82 C224.02534,133.8365 222.931699,133.841656 222.146467,133.843268 L221.36134,133.844 L221.36134,133.844 C220.65334,133.844 219.99334,133.808 219.39334,133.688 L219.39334,131.288 L222.94534,131.288 L222.94534,130.448 L219.39334,130.448 L219.39334,128.492 L222.45334,128.492 L222.45334,127.64 L215.50534,127.64 L215.50534,128.492 L218.48134,128.492 L218.48134,133.448 C217.50934,133.076 216.74134,132.38 216.28534,131.108 C216.39334,130.628 216.48934,130.112 216.56134,129.56 L215.67334,129.464 C215.40934,131.624 214.76134,133.328 213.42934,134.348 C213.64534,134.48 214.00534,134.792 214.14934,134.96 Z M234.124007,134.924 L234.124007,132.656 L238.372007,132.656 L238.372007,131.78 L234.124007,131.78 L234.124007,129.968 L237.376007,129.968 L237.376007,129.116 L234.124007,129.116 L234.124007,127.304 L233.200007,127.304 L233.200007,129.116 L230.140007,129.116 C230.644007,128.36 231.160007,127.496 231.640007,126.56 L238.156007,126.56 L238.156007,125.696 L232.060007,125.696 C232.300007,125.204 232.516007,124.688 232.732007,124.184 L231.736007,123.896 C231.532007,124.496 231.268007,125.12 231.016007,125.696 L228.076007,125.696 L228.076007,126.56 L230.608007,126.56 C230.212007,127.364 229.840007,128.012 229.660007,128.276 C229.348007,128.804 229.096007,129.152 228.832007,129.212 C228.952007,129.476 229.108007,129.944 229.168007,130.136 C229.288007,130.028 229.732007,129.968 230.452007,129.968 L233.200007,129.968 L233.200007,131.78 L227.896007,131.78 L227.896007,132.656 L233.200007,132.656 L233.200007,134.924 L234.124007,134.924 Z M242.446674,134.972 C243.478674,133.16 243.634674,130.46 243.634674,128.6 L243.634674,125.984 L252.670674,125.984 L252.670674,125.168 L248.518674,125.168 C248.362674,124.784 248.110674,124.292 247.834674,123.92 L247.018674,124.196 C247.198674,124.472 247.390674,124.844 247.534674,125.168 L242.758674,125.168 L242.758674,128.6 C242.758674,130.328 242.674674,132.752 241.702674,134.456 C241.894674,134.552 242.290674,134.816 242.446674,134.972 Z M251.542674,134.792 C252.298674,134.792 252.610674,134.324 252.742674,132.644 C252.514674,132.572 252.226674,132.416 252.034674,132.248 C251.974674,133.436 251.866674,133.94 251.602674,133.94 C250.858674,133.952 250.078674,132.596 249.622674,130.568 L252.298674,130.568 L252.298674,129.776 L249.478674,129.776 C249.358674,129.104 249.286674,128.396 249.250674,127.64 C250.198674,127.532 251.086674,127.412 251.818674,127.256 L251.134674,126.572 C249.682674,126.884 247.102674,127.1 244.918674,127.184 L244.918674,133.376 C244.918674,133.808 244.618674,133.976 244.426674,134.048 C244.546674,134.228 244.678674,134.576 244.738674,134.792 C244.954674,134.624 245.290674,134.48 247.594674,133.664 C247.570674,133.496 247.558674,133.148 247.570674,132.932 L245.758674,133.496 L245.758674,130.568 L248.758674,130.568 C249.274674,133.052 250.270674,134.792 251.542674,134.792 Z M248.614674,129.776 L245.758674,129.776 L245.758674,127.892 C246.610674,127.856 247.510674,127.796 248.386674,127.724 C248.422674,128.444 248.506674,129.128 248.614674,129.776 Z M248.614674,134.696 L249.334674,134.372 C249.094674,133.724 248.566674,132.644 248.110674,131.828 L247.450674,132.08 C247.882674,132.92 248.386674,134.036 248.614674,134.696 Z M265.529341,134.924 C266.453341,134.924 266.789341,134.336 266.945341,132.284 C266.693341,132.2 266.369341,131.996 266.165341,131.78 C266.093341,133.376 265.949341,134 265.613341,134 C265.025341,134 264.485341,133.256 264.041341,132.02 C264.941341,130.832 265.649341,129.428 266.165341,127.82 L265.277341,127.604 C264.893341,128.852 264.377341,129.956 263.729341,130.94 C263.429341,129.776 263.225341,128.336 263.105341,126.752 L266.645341,126.752 L266.645341,125.876 L263.045341,125.876 C263.021341,125.264 263.009341,124.64 263.009341,123.992 L262.073341,123.992 C262.085341,124.628 262.097341,125.252 262.133341,125.876 L256.289341,125.876 L256.289341,126.752 L262.181341,126.752 C262.337341,128.696 262.601341,130.472 263.021341,131.876 C262.229341,132.836 261.269341,133.628 260.141341,134.228 C260.345341,134.384 260.693341,134.732 260.837341,134.912 C261.785341,134.348 262.625341,133.664 263.369341,132.848 C263.909341,134.144 264.629341,134.924 265.529341,134.924 Z M265.757341,125.864 L266.309341,125.24 C265.865341,124.844 264.977341,124.328 264.245341,124.004 L263.729341,124.556 C264.461341,124.904 265.337341,125.456 265.757341,125.864 Z M261.125341,131.432 L261.125341,127.808 L256.985341,127.808 L256.985341,131.432 L261.125341,131.432 Z M260.249341,130.664 L257.813341,130.664 L257.813341,128.588 L260.249341,128.588 L260.249341,130.664 Z M256.397341,134.096 C257.441341,133.862 258.802591,133.56725 260.192528,133.267438 L261.120237,133.067424 C261.274508,133.034167 261.428341,133.001 261.581341,132.968 L261.509341,132.128 C259.565341,132.536 257.525341,132.944 256.229341,133.196 L256.397341,134.096 Z M273.684008,134.912 L273.684008,134.528 L278.544008,134.528 L278.544008,134.864 L279.456008,134.864 L279.456008,129.848 L274.500008,129.848 C275.160008,129.464 275.808008,129.044 276.432008,128.6 L280.920008,128.6 L280.920008,127.796 L277.464008,127.796 C278.556008,126.896 279.540008,125.888 280.380008,124.784 L279.624008,124.376 C279.216008,124.928 278.760008,125.456 278.256008,125.96 L278.256008,125.468 L275.292008,125.468 L275.292008,123.968 L274.416008,123.968 L274.416008,125.468 L271.356008,125.468 L271.356008,126.26 L274.416008,126.26 L274.416008,127.796 L270.312008,127.796 L270.312008,128.6 L274.980008,128.6 C273.468008,129.572 271.788008,130.364 270.048008,130.976 C270.216008,131.156 270.504008,131.516 270.612008,131.708 C271.344008,131.432 272.088008,131.108 272.808008,130.76 L272.808008,134.912 L273.684008,134.912 Z M276.132008,127.796 L275.292008,127.796 L275.292008,126.26 L277.956008,126.26 C277.392008,126.8 276.780008,127.316 276.132008,127.796 Z M278.544008,131.792 L273.684008,131.792 L273.684008,130.604 L278.544008,130.604 L278.544008,131.792 Z M278.544008,133.748 L273.684008,133.748 L273.684008,132.5 L278.544008,132.5 L278.544008,133.748 Z M293.814675,128.792 L293.814675,124.448 L285.450675,124.448 L285.450675,125.252 L292.950675,125.252 L292.950675,126.284 L285.978675,126.284 L285.978675,126.956 L292.950675,126.956 L292.950675,127.988 L285.450675,127.988 L285.450675,128.792 L293.814675,128.792 Z M284.766675,134.984 C287.742675,134.408 289.086675,133.34 289.722675,131.768 C290.694675,133.496 292.314675,134.48 294.786675,134.888 C294.894675,134.624 295.134675,134.264 295.314675,134.06 C292.566675,133.748 290.838675,132.644 290.058675,130.724 C290.178675,130.22 290.262675,129.656 290.310675,129.056 L289.374675,129.056 C289.134675,131.78 288.534675,133.484 284.310675,134.228 C284.478675,134.408 284.694675,134.768 284.766675,134.984 Z M292.758675,132.296 C293.166675,131.732 293.658675,130.88 294.066675,130.148 L293.286675,129.692 C293.010675,130.376 292.494675,131.324 292.098675,131.9 L292.758675,132.296 Z M285.834675,132.272 C286.398675,131.696 286.794675,130.784 287.070675,130.016 L286.302675,129.716 C286.062675,130.436 285.618675,131.3 285.078675,131.816 L285.834675,132.272 Z M6.092,163.912 L6.092,163.408 L10.364,163.408 L10.364,163.852 L11.216,163.852 L11.216,159.28 L8.708,159.28 L8.708,157.312 L11.996,157.312 L11.996,156.448 L8.708,156.448 L8.708,154.372 C9.74,154.192 10.712,153.964 11.492,153.7 L10.784,153.004 C9.452,153.484 7.04,153.856 4.976,154.072 C5.06,154.276 5.18,154.612 5.216,154.828 C6.068,154.744 6.98,154.636 7.856,154.504 L7.856,156.448 L4.4,156.448 L4.4,157.312 L7.856,157.312 L7.856,159.28 L5.276,159.28 L5.276,163.912 L6.092,163.912 Z M3.908,155.068 L4.424,154.348 C3.92,154.012 2.912,153.46 2.18,153.112 L1.688,153.748 C2.42,154.144 3.416,154.72 3.908,155.068 Z M3.308,158.32 L3.812,157.588 C3.284,157.252 2.288,156.724 1.592,156.376 L1.1,157.024 C1.832,157.408 2.816,157.984 3.308,158.32 Z M2.132,163.756 C2.84,162.652 3.68,161.164 4.304,159.904 L3.656,159.316 C2.96,160.672 2.036,162.256 1.388,163.156 L2.132,163.756 Z M10.364,162.58 L6.092,162.58 L6.092,160.108 L10.364,160.108 L10.364,162.58 Z M21.734667,163.924 L21.734667,161.656 L25.982667,161.656 L25.982667,160.78 L21.734667,160.78 L21.734667,158.968 L24.986667,158.968 L24.986667,158.116 L21.734667,158.116 L21.734667,156.304 L20.810667,156.304 L20.810667,158.116 L17.750667,158.116 C18.254667,157.36 18.770667,156.496 19.250667,155.56 L25.766667,155.56 L25.766667,154.696 L19.670667,154.696 C19.910667,154.204 20.126667,153.688 20.342667,153.184 L19.346667,152.896 C19.142667,153.496 18.878667,154.12 18.626667,154.696 L15.686667,154.696 L15.686667,155.56 L18.218667,155.56 C17.822667,156.364 17.450667,157.012 17.270667,157.276 C16.958667,157.804 16.706667,158.152 16.442667,158.212 C16.5112384,158.362857 16.591565,158.580327 16.6590169,158.774845 L16.74746,159.038216 C16.759565,159.07551 16.7700956,159.108571 16.778667,159.136 C16.898667,159.028 17.342667,158.968 18.062667,158.968 L20.810667,158.968 L20.810667,160.78 L15.506667,160.78 L15.506667,161.656 L20.810667,161.656 L20.810667,163.924 L21.734667,163.924 Z M30.057334,163.972 C31.089334,162.16 31.245334,159.46 31.245334,157.6 L31.245334,154.984 L40.281334,154.984 L40.281334,154.168 L36.129334,154.168 C35.973334,153.784 35.721334,153.292 35.445334,152.92 L34.629334,153.196 C34.809334,153.472 35.001334,153.844 35.145334,154.168 L30.369334,154.168 L30.369334,157.6 C30.369334,159.328 30.285334,161.752 29.313334,163.456 C29.505334,163.552 29.901334,163.816 30.057334,163.972 Z M39.153334,163.792 C39.909334,163.792 40.221334,163.324 40.353334,161.644 C40.125334,161.572 39.837334,161.416 39.645334,161.248 C39.585334,162.436 39.477334,162.94 39.213334,162.94 C38.469334,162.952 37.689334,161.596 37.233334,159.568 L39.909334,159.568 L39.909334,158.776 L37.089334,158.776 C36.969334,158.104 36.897334,157.396 36.861334,156.64 C37.809334,156.532 38.697334,156.412 39.429334,156.256 L38.745334,155.572 C37.293334,155.884 34.713334,156.1 32.529334,156.184 L32.529334,162.376 C32.529334,162.808 32.229334,162.976 32.037334,163.048 C32.157334,163.228 32.289334,163.576 32.349334,163.792 C32.565334,163.624 32.901334,163.48 35.205334,162.664 C35.181334,162.496 35.169334,162.148 35.181334,161.932 L33.369334,162.496 L33.369334,159.568 L36.369334,159.568 C36.885334,162.052 37.881334,163.792 39.153334,163.792 Z M36.225334,158.776 L33.369334,158.776 L33.369334,156.892 C34.221334,156.856 35.121334,156.796 35.997334,156.724 C36.033334,157.444 36.117334,158.128 36.225334,158.776 Z M36.225334,163.696 L36.945334,163.372 C36.705334,162.724 36.177334,161.644 35.721334,160.828 L35.061334,161.08 C35.493334,161.92 35.997334,163.036 36.225334,163.696 Z M44.944001,164.284 C46.204001,163.84 47.020001,162.856 47.020001,161.56 C47.020001,160.72 46.660001,160.18 46.000001,160.18 C45.508001,160.18 45.088001,160.48 45.088001,161.044 C45.088001,161.608 45.496001,161.896 45.988001,161.896 C46.060001,161.896 46.120001,161.896 46.192001,161.884 C46.132001,162.7 45.604001,163.264 44.680001,163.648 L44.944001,164.284 Z M66.466668,163.732 C66.922668,163.6 67.078668,163.288 67.078668,162.64 L67.078668,154.696 L68.554668,154.696 L68.554668,153.808 L57.934668,153.808 L57.934668,154.696 L66.166668,154.696 L66.166668,162.628 C66.166668,162.88 66.082668,162.964 65.818668,162.976 C65.7200966,162.980286 65.531219,162.984571 65.2853808,162.986124 L64.965168,162.9865 C64.564668,162.985 64.078668,162.976 63.598668,162.952 C63.742668,163.204 63.922668,163.648 63.982668,163.9 L64.541668,163.899222 C65.4250013,163.895333 66.066668,163.872 66.466668,163.732 Z M60.022668,161.86 L60.022668,160.9 L64.030668,160.9 L64.030668,156.448 L59.158668,156.448 L59.158668,161.86 L60.022668,161.86 Z M63.154668,160.048 L60.022668,160.048 L60.022668,157.312 L63.154668,157.312 L63.154668,160.048 Z M73.397335,156.748 L73.397335,155.164 L81.377335,155.164 L81.377335,156.748 L82.289335,156.748 L82.289335,154.324 L78.209335,154.324 C78.041335,153.904 77.717335,153.328 77.429335,152.884 L76.553335,153.16 C76.769335,153.508 76.997335,153.952 77.153335,154.324 L72.521335,154.324 L72.521335,156.748 L73.397335,156.748 Z M72.917335,163.876 C75.581335,163.264 76.925335,162.22 77.609335,160.696 L82.565335,160.696 L82.565335,159.916 L77.885335,159.916 C78.209335,158.764 78.305335,157.396 78.353335,155.764 L77.429335,155.764 C77.381335,157.456 77.309335,158.812 76.937335,159.916 L72.293335,159.916 L72.293335,160.696 L76.577335,160.696 C75.917335,161.848 74.693335,162.628 72.413335,163.108 C72.605335,163.3 72.821335,163.636 72.917335,163.876 Z M76.049335,157.72 L76.613335,157.084 C76.241335,156.664 75.473335,156.124 74.837335,155.776 L74.297335,156.34 C74.945335,156.724 75.701335,157.312 76.049335,157.72 Z M74.969335,159.58 L75.509335,158.908 C75.125335,158.5 74.297335,157.948 73.637335,157.588 L73.121335,158.188 C73.781335,158.572 74.585335,159.148 74.969335,159.58 Z M81.977335,163.84 L82.517335,163.156 C81.545335,162.436 79.865335,161.608 78.269335,161.032 L77.837335,161.68 C79.421335,162.28 81.017335,163.108 81.977335,163.84 Z M91.596002,159.88 L91.596002,154.336 L95.220002,154.336 L95.220002,159.88 L96.096002,159.88 L96.096002,153.544 L90.744002,153.544 L90.744002,159.88 L91.596002,159.88 Z M86.316002,162.64 L90.384002,161.428 L90.264002,160.6 C89.748002,160.756 89.220002,160.924 88.716002,161.056 L88.716002,158.044 L89.964002,158.044 L89.964002,157.216 L88.716002,157.216 L88.716002,154.612 L90.204002,154.612 L90.204002,153.772 L86.268002,153.772 L86.268002,154.612 L87.852002,154.612 L87.852002,157.216 L86.436002,157.216 L86.436002,158.044 L87.852002,158.044 L87.852002,161.308 C87.204002,161.5 86.604002,161.644 86.124002,161.776 L86.316002,162.64 Z M90.120002,163.948 C92.100002,162.928 93.048002,161.5 93.468002,160.072 L93.468002,162.592 C93.468002,163.384 93.792002,163.6 94.608002,163.6 L95.700002,163.6 C96.732002,163.6 96.864002,163.132 96.972002,161.248 C96.744002,161.2 96.468002,161.068 96.252002,160.912 C96.192002,162.604 96.132002,162.928 95.700002,162.928 L94.728002,162.928 C94.392002,162.928 94.296002,162.844 94.296002,162.508 L94.296002,159.688 L93.564002,159.688 C93.732002,158.992 93.780002,158.32 93.780002,157.672 L93.780002,155.344 L92.940002,155.344 L92.940002,157.648 C92.940002,159.508 92.568002,161.764 89.556002,163.3 C89.736002,163.432 90.012002,163.78 90.120002,163.948 Z M110.322669,162.04 C110.586669,161.92 110.658669,161.728 110.658669,161.344 L110.658669,156.112 L107.502669,156.112 C107.682669,155.788 107.850669,155.44 107.982669,155.08 L111.150669,155.08 L111.150669,154.3 L108.270669,154.3 C108.402669,153.916 108.498669,153.508 108.594669,153.1 L107.802669,152.956 C107.706669,153.424 107.586669,153.88 107.430669,154.3 L105.702669,154.3 L105.702669,155.08 L107.142669,155.08 C106.698669,156.04 106.146669,156.856 105.414669,157.456 C105.594669,157.588 105.894669,157.888 106.014669,158.044 C106.314669,157.756 106.614669,157.456 106.866669,157.096 L106.866669,162.16 L107.634669,162.16 L107.634669,160.156 L109.854669,160.156 L109.854669,161.344 C109.854669,161.452 109.806669,161.488 109.698669,161.5 L109.477606,161.499367 C109.312606,161.498312 109.086669,161.4955 108.846669,161.488 C108.942669,161.692 109.026669,161.968 109.062669,162.172 C109.662669,162.172 110.070669,162.172 110.322669,162.04 Z M101.502669,163.924 L101.502669,154.276 L102.798669,154.276 C102.594669,155.092 102.306669,156.196 102.006669,157.084 C102.726669,158.056 102.882669,158.896 102.882669,159.556 C102.882669,159.928 102.834669,160.276 102.678669,160.408 C102.594669,160.468 102.498669,160.504 102.366669,160.516 C102.222669,160.528 102.030669,160.528 101.814669,160.492 C101.934669,160.72 101.994669,161.044 102.006669,161.26 C102.234669,161.272 102.486669,161.272 102.666669,161.248 C102.882669,161.212 103.074669,161.152 103.230669,161.032 C103.518669,160.804 103.638669,160.276 103.638669,159.652 C103.638669,158.896 103.482669,158.008 102.750669,156.988 C103.098669,156.016 103.470669,154.768 103.758669,153.76 L103.206669,153.436 L103.086669,153.472 L100.710669,153.472 L100.710669,163.924 L101.502669,163.924 Z M104.886669,156.208 L105.522669,155.836 C105.282669,155.332 104.742669,154.564 104.262669,154 L103.662669,154.324 C104.142669,154.9 104.658669,155.704 104.886669,156.208 Z M109.854669,157.804 L107.634669,157.804 L107.634669,156.808 L109.854669,156.808 L109.854669,157.804 Z M103.770669,163.804 C104.226669,163.024 104.706669,162.304 105.042669,162.304 C105.270669,162.304 105.630669,162.676 106.050669,162.988 C106.722669,163.468 107.454669,163.66 108.510669,163.66 C109.242669,163.66 110.502669,163.624 111.066669,163.576 C111.078669,163.348 111.186669,162.952 111.270669,162.736 C110.478669,162.832 109.302669,162.892 108.522669,162.892 C107.538669,162.892 106.842669,162.748 106.230669,162.316 C105.906669,162.088 105.690669,161.896 105.486669,161.752 L105.486669,157.54 L103.614669,157.54 L103.614669,158.308 L104.706669,158.308 L104.706669,161.668 C104.250669,161.86 103.734669,162.388 103.218669,163.072 L103.770669,163.804 Z M109.854669,159.496 L107.634669,159.496 L107.634669,158.452 L109.854669,158.452 L109.854669,159.496 Z M124.561336,163.936 L124.561336,153.076 L123.649336,153.076 L123.649336,159.772 L121.069336,160.372 L121.069336,154.048 L120.169336,154.048 L120.169336,160.024 C120.169336,160.54 119.761336,160.84 119.509336,160.972 C119.653336,161.152 119.857336,161.5 119.929336,161.716 C120.205336,161.524 120.613336,161.368 123.649336,160.6 L123.649336,163.936 L124.561336,163.936 Z M115.909336,162.016 L115.909336,160.924 L118.837336,160.924 L118.837336,154.048 L115.069336,154.048 L115.069336,162.016 L115.909336,162.016 Z M117.973336,160.096 L115.909336,160.096 L115.909336,154.876 L117.973336,154.876 L117.973336,160.096 Z M138.656003,162.04 C138.920003,161.92 138.992003,161.728 138.992003,161.344 L138.992003,156.112 L135.836003,156.112 C136.016003,155.788 136.184003,155.44 136.316003,155.08 L139.484003,155.08 L139.484003,154.3 L136.604003,154.3 C136.736003,153.916 136.832003,153.508 136.928003,153.1 L136.136003,152.956 C136.040003,153.424 135.920003,153.88 135.764003,154.3 L134.036003,154.3 L134.036003,155.08 L135.476003,155.08 C135.032003,156.04 134.480003,156.856 133.748003,157.456 C133.928003,157.588 134.228003,157.888 134.348003,158.044 C134.648003,157.756 134.948003,157.456 135.200003,157.096 L135.200003,162.16 L135.968003,162.16 L135.968003,160.156 L138.188003,160.156 L138.188003,161.344 C138.188003,161.452 138.140003,161.488 138.032003,161.5 L137.81094,161.499367 C137.64594,161.498312 137.420003,161.4955 137.180003,161.488 C137.276003,161.692 137.360003,161.968 137.396003,162.172 C137.996003,162.172 138.404003,162.172 138.656003,162.04 Z M129.836003,163.924 L129.836003,154.276 L131.132003,154.276 C130.928003,155.092 130.640003,156.196 130.340003,157.084 C131.060003,158.056 131.216003,158.896 131.216003,159.556 C131.216003,159.928 131.168003,160.276 131.012003,160.408 C130.928003,160.468 130.832003,160.504 130.700003,160.516 C130.556003,160.528 130.364003,160.528 130.148003,160.492 C130.268003,160.72 130.328003,161.044 130.340003,161.26 C130.568003,161.272 130.820003,161.272 131.000003,161.248 C131.216003,161.212 131.408003,161.152 131.564003,161.032 C131.852003,160.804 131.972003,160.276 131.972003,159.652 C131.972003,158.896 131.816003,158.008 131.084003,156.988 C131.432003,156.016 131.804003,154.768 132.092003,153.76 L131.540003,153.436 L131.420003,153.472 L129.044003,153.472 L129.044003,163.924 L129.836003,163.924 Z M133.220003,156.208 L133.856003,155.836 C133.616003,155.332 133.076003,154.564 132.596003,154 L131.996003,154.324 C132.476003,154.9 132.992003,155.704 133.220003,156.208 Z M138.188003,157.804 L135.968003,157.804 L135.968003,156.808 L138.188003,156.808 L138.188003,157.804 Z M132.104003,163.804 C132.560003,163.024 133.040003,162.304 133.376003,162.304 C133.604003,162.304 133.964003,162.676 134.384003,162.988 C135.056003,163.468 135.788003,163.66 136.844003,163.66 C137.576003,163.66 138.836003,163.624 139.400003,163.576 C139.412003,163.348 139.520003,162.952 139.604003,162.736 C138.812003,162.832 137.636003,162.892 136.856003,162.892 C135.872003,162.892 135.176003,162.748 134.564003,162.316 C134.240003,162.088 134.024003,161.896 133.820003,161.752 L133.820003,157.54 L131.948003,157.54 L131.948003,158.308 L133.040003,158.308 L133.040003,161.668 C132.584003,161.86 132.068003,162.388 131.552003,163.072 L132.104003,163.804 Z M138.188003,159.496 L135.968003,159.496 L135.968003,158.452 L138.188003,158.452 L138.188003,159.496 Z M152.64267,163.492 C153.00267,163.36 153.13467,163.084 153.13467,162.52 L153.13467,153.16 L152.25867,153.16 L152.25867,162.532 C152.25867,162.736 152.21067,162.784 152.00667,162.796 C151.80267,162.808 151.14267,162.808 150.44667,162.784 C150.57867,163.024 150.73467,163.432 150.77067,163.66 C151.63467,163.66 152.27067,163.636 152.64267,163.492 Z M148.56267,157.948 L149.24667,157.504 C148.89867,156.82 148.10667,155.74 147.43467,154.936 L146.79867,155.32 C147.08667,155.68 147.39867,156.088 147.68667,156.508 L144.62667,156.772 C145.10667,156.136 145.59867,155.332 146.00667,154.54 L149.24667,154.54 L149.24667,153.748 L143.11467,153.748 L143.11467,154.54 L145.01067,154.54 C144.62667,155.392 144.14667,156.136 143.96667,156.376 C143.76267,156.664 143.58267,156.868 143.39067,156.904 C143.49867,157.132 143.64267,157.552 143.69067,157.744 C143.97867,157.612 144.41067,157.564 148.14267,157.204 C148.32267,157.48 148.46667,157.744 148.56267,157.948 Z M150.74667,161.212 L150.74667,154 L149.90667,154 L149.90667,161.212 L150.74667,161.212 Z M143.21067,163.324 C144.78267,163.012 147.05067,162.58 149.17467,162.172 L149.11467,161.392 C148.28667,161.548 147.43467,161.704 146.61867,161.86 L146.61867,159.988 L149.00667,159.988 L149.00667,159.196 L146.61867,159.196 L146.61867,157.9 L145.76667,157.9 L145.76667,159.196 L143.42667,159.196 L143.42667,159.988 L145.76667,159.988 L145.76667,162.004 C144.72267,162.184 143.75067,162.364 143.01867,162.484 L143.21067,163.324 Z M166.425337,157.792 L166.425337,153.448 L158.061337,153.448 L158.061337,154.252 L165.561337,154.252 L165.561337,155.284 L158.589337,155.284 L158.589337,155.956 L165.561337,155.956 L165.561337,156.988 L158.061337,156.988 L158.061337,157.792 L166.425337,157.792 Z M157.377337,163.984 C160.353337,163.408 161.697337,162.34 162.333337,160.768 C163.305337,162.496 164.925337,163.48 167.397337,163.888 C167.505337,163.624 167.745337,163.264 167.925337,163.06 C165.177337,162.748 163.449337,161.644 162.669337,159.724 C162.789337,159.22 162.873337,158.656 162.921337,158.056 L161.985337,158.056 C161.745337,160.78 161.145337,162.484 156.921337,163.228 C157.089337,163.408 157.305337,163.768 157.377337,163.984 Z M165.369337,161.296 C165.777337,160.732 166.269337,159.88 166.677337,159.148 L165.897337,158.692 C165.621337,159.376 165.105337,160.324 164.709337,160.9 L165.369337,161.296 Z M158.445337,161.272 C159.009337,160.696 159.405337,159.784 159.681337,159.016 L158.913337,158.716 C158.673337,159.436 158.229337,160.3 157.689337,160.816 L158.445337,161.272 Z M176.092004,163.912 L176.092004,163.408 L180.364004,163.408 L180.364004,163.852 L181.216004,163.852 L181.216004,159.28 L178.708004,159.28 L178.708004,157.312 L181.996004,157.312 L181.996004,156.448 L178.708004,156.448 L178.708004,154.372 C179.740004,154.192 180.712004,153.964 181.492004,153.7 L180.784004,153.004 C179.452004,153.484 177.040004,153.856 174.976004,154.072 C175.060004,154.276 175.180004,154.612 175.216004,154.828 C176.068004,154.744 176.980004,154.636 177.856004,154.504 L177.856004,156.448 L174.400004,156.448 L174.400004,157.312 L177.856004,157.312 L177.856004,159.28 L175.276004,159.28 L175.276004,163.912 L176.092004,163.912 Z M173.908004,155.068 L174.424004,154.348 C173.920004,154.012 172.912004,153.46 172.180004,153.112 L171.688004,153.748 C172.420004,154.144 173.416004,154.72 173.908004,155.068 Z M173.308004,158.32 L173.812004,157.588 C173.284004,157.252 172.288004,156.724 171.592004,156.376 L171.100004,157.024 C171.832004,157.408 172.816004,157.984 173.308004,158.32 Z M172.132004,163.756 C172.840004,162.652 173.680004,161.164 174.304004,159.904 L173.656004,159.316 C172.960004,160.672 172.036004,162.256 171.388004,163.156 L172.132004,163.756 Z M180.364004,162.58 L176.092004,162.58 L176.092004,160.108 L180.364004,160.108 L180.364004,162.58 Z M191.350671,155.188 L191.350671,154.372 L189.142671,154.372 C188.998671,153.964 188.758671,153.376 188.506671,152.908 L187.726671,153.136 C187.894671,153.508 188.086671,153.976 188.218671,154.372 L185.734671,154.372 L185.734671,155.188 L191.350671,155.188 Z M193.042671,163.9 L193.042671,154.42 L194.950671,154.42 C194.626671,155.344 194.158671,156.616 193.714671,157.624 C194.782671,158.716 195.082671,159.58 195.082671,160.336 C195.094671,160.744 195.010671,161.116 194.770671,161.272 C194.638671,161.344 194.470671,161.38 194.290671,161.392 C194.050671,161.404 193.714671,161.404 193.366671,161.368 C193.510671,161.62 193.594671,161.98 193.606671,162.22 C193.942671,162.232 194.326671,162.232 194.626671,162.196 C194.902671,162.172 195.166671,162.088 195.370671,161.944 C195.754671,161.692 195.910671,161.104 195.910671,160.42 C195.910671,159.58 195.646671,158.656 194.578671,157.528 C195.082671,156.424 195.634671,155.056 196.066671,153.964 L195.454671,153.556 L195.310671,153.604 L192.238671,153.604 L192.238671,163.9 L193.042671,163.9 Z M191.626671,158.404 L191.626671,157.588 L189.922671,157.588 C190.222671,156.964 190.558671,156.148 190.822671,155.452 L189.934671,155.26 C189.742671,155.932 189.382671,156.916 189.058671,157.588 L185.386671,157.588 L185.386671,158.404 L191.626671,158.404 Z M187.210671,157.54 L188.026671,157.324 C187.906671,156.76 187.582671,155.92 187.234671,155.296 L186.466671,155.488 C186.790671,156.136 187.102671,156.988 187.210671,157.54 Z M186.922671,163.84 L186.922671,163.264 L190.186671,163.264 L190.186671,163.744 L191.062671,163.744 L191.062671,159.496 L186.070671,159.496 L186.070671,163.84 L186.922671,163.84 Z M190.186671,162.472 L186.922671,162.472 L186.922671,160.3 L190.186671,160.3 L190.186671,162.472 Z M202.949338,163.9 L202.949338,163.516 L208.241338,163.516 L208.241338,163.864 L209.105338,163.864 L209.105338,159.892 L204.593338,159.892 C205.181338,159.652 205.745338,159.376 206.297338,159.088 L210.209338,159.088 L210.209338,158.356 L207.545338,158.356 C208.301338,157.876 208.997338,157.336 209.585338,156.76 L208.889338,156.316 C208.517338,156.676 208.109338,157.024 207.653338,157.348 L207.653338,156.736 L204.965338,156.736 L204.965338,155.896 L209.585338,155.896 L209.585338,153.436 L200.297338,153.436 L200.297338,155.896 L204.101338,155.896 L204.101338,156.736 L200.801338,156.736 L200.801338,157.456 L204.101338,157.456 L204.101338,158.356 L199.613338,158.356 L199.613338,159.088 L204.521338,159.088 C202.901338,159.796 201.113338,160.336 199.361338,160.708 C199.493338,160.888 199.721338,161.284 199.805338,161.476 C200.573338,161.284 201.353338,161.068 202.109338,160.828 L202.109338,163.9 L202.949338,163.9 Z M205.853338,155.236 L203.885338,155.236 L203.885338,154.084 L205.853338,154.084 L205.853338,155.236 Z M203.057338,155.236 L201.149338,155.236 L201.149338,154.084 L203.057338,154.084 L203.057338,155.236 Z M208.709338,155.236 L206.681338,155.236 L206.681338,154.084 L208.709338,154.084 L208.709338,155.236 Z M206.021338,158.356 L204.965338,158.356 L204.965338,157.456 L207.497338,157.456 C207.041338,157.768 206.549338,158.08 206.021338,158.356 Z M208.241338,161.356 L202.949338,161.356 L202.949338,160.564 L208.241338,160.564 L208.241338,161.356 Z M208.241338,162.844 L202.949338,162.844 L202.949338,161.968 L208.241338,161.968 L208.241338,162.844 Z M214.944005,164.284 C216.204005,163.84 217.020005,162.856 217.020005,161.56 C217.020005,160.72 216.660005,160.18 216.000005,160.18 C215.508005,160.18 215.088005,160.48 215.088005,161.044 C215.088005,161.608 215.496005,161.896 215.988005,161.896 C216.060005,161.896 216.120005,161.896 216.192005,161.884 C216.132005,162.7 215.604005,163.264 214.680005,163.648 L214.944005,164.284 Z M230.538672,155.596 L231.138672,154.96 C230.754672,154.48 229.938672,153.712 229.290672,153.184 L228.714672,153.724 C229.362672,154.288 230.154672,155.092 230.538672,155.596 Z M231.858672,157.972 C233.574672,157.144 233.958672,155.848 233.958672,154.732 L233.958672,154.228 L236.070672,154.228 L236.070672,156.148 C236.070672,157.036 236.250672,157.384 237.066672,157.384 L237.966672,157.384 C238.206672,157.384 238.446672,157.372 238.602672,157.324 C238.566672,157.12 238.530672,156.784 238.518672,156.556 C238.374672,156.592 238.122672,156.616 237.954672,156.616 L237.126672,156.616 C236.946672,156.616 236.910672,156.508 236.910672,156.172 L236.910672,153.388 L233.118672,153.388 L233.118672,154.708 C233.118672,155.596 232.854672,156.592 231.282672,157.312 C231.450672,157.444 231.750672,157.792 231.858672,157.972 Z M229.350672,163.672 C229.542672,163.456 229.866672,163.192 231.978672,161.632 C231.870672,161.464 231.726672,161.128 231.654672,160.9 L230.334672,161.848 L230.334672,156.712 L227.790672,156.712 L227.790672,157.564 L229.470672,157.564 L229.470672,161.848 C229.470672,162.388 229.098672,162.784 228.870672,162.928 C229.038672,163.096 229.266672,163.468 229.350672,163.672 Z M238.194672,163.96 C238.314672,163.708 238.542672,163.36 238.746672,163.168 C237.594672,162.916 236.562672,162.508 235.698672,161.944 C236.718672,161.08 237.534672,159.928 238.002672,158.44 L237.450672,158.188 L237.294672,158.224 L231.846672,158.224 L231.846672,159.064 L232.458672,159.064 L232.290672,159.124 C232.782672,160.216 233.454672,161.164 234.294672,161.944 C233.406672,162.508 232.386672,162.904 231.330672,163.144 C231.498672,163.348 231.702672,163.696 231.774672,163.936 C232.914672,163.612 234.018672,163.156 234.978672,162.496 C235.878672,163.168 236.970672,163.66 238.194672,163.96 Z M235.002672,161.44 C234.210672,160.78 233.562672,159.976 233.130672,159.064 L236.874672,159.064 C236.442672,160.012 235.794672,160.804 235.002672,161.44 Z M242.209339,158.872 C243.925339,158.584 245.773339,158.068 247.381339,157.288 C248.869339,157.984 250.633339,158.452 252.469339,158.704 C252.589339,158.452 252.817339,158.08 253.009339,157.876 C251.317339,157.696 249.697339,157.324 248.317339,156.772 C249.445339,156.124 250.417339,155.296 251.053339,154.312 L250.477339,153.94 L250.321339,153.988 L246.169339,153.988 C246.409339,153.7 246.613339,153.412 246.781339,153.112 L245.833339,152.932 C245.245339,153.964 244.081339,155.152 242.365339,155.968 C242.569339,156.112 242.833339,156.4 242.965339,156.616 C243.637339,156.256 244.213339,155.872 244.729339,155.452 C245.221339,155.956 245.797339,156.4 246.457339,156.784 C244.993339,157.396 243.349339,157.816 241.813339,158.02 C241.957339,158.224 242.125339,158.62 242.209339,158.872 Z M247.381339,156.352 C246.565339,155.944 245.869339,155.464 245.353339,154.9 L245.473339,154.78 L249.601339,154.78 C249.025339,155.38 248.245339,155.908 247.381339,156.352 Z M244.381339,163.912 L244.381339,163.528 L250.333339,163.528 L250.333339,163.888 L251.269339,163.888 L251.269339,158.704 L243.481339,158.704 L243.481339,163.912 L244.381339,163.912 Z M246.925339,160.696 L244.381339,160.696 L244.381339,159.496 L246.925339,159.496 L246.925339,160.696 Z M250.333339,160.696 L247.825339,160.696 L247.825339,159.496 L250.333339,159.496 L250.333339,160.696 Z M250.333339,162.748 L247.825339,162.748 L247.825339,161.428 L250.333339,161.428 L250.333339,162.748 Z M246.925339,162.748 L244.381339,162.748 L244.381339,161.428 L246.925339,161.428 L246.925339,162.748 Z M256.796006,164.056 C258.032006,162.424 258.236006,159.964 258.236006,158.2 L258.236006,155.644 L266.804006,155.644 L266.804006,154.768 L262.316006,154.768 L262.736006,154.66 C262.628006,154.204 262.352006,153.496 262.088006,152.944 L261.188006,153.136 C261.392006,153.64 261.644006,154.3 261.764006,154.768 L257.300006,154.768 L257.300006,158.2 C257.300006,159.796 257.192006,161.908 256.064006,163.408 C256.280006,163.528 256.640006,163.864 256.796006,164.056 Z M274.310673,155.044 C276.518673,154.828 279.110673,154.432 280.742673,153.82 L279.998673,153.112 C278.678673,153.664 276.182673,154.06 274.034673,154.288 C274.142673,154.48 274.274673,154.828 274.310673,155.044 Z M273.086673,155.14 L273.638673,154.444 C273.146673,154.096 272.162673,153.52 271.442673,153.148 L270.914673,153.748 C271.646673,154.156 272.606673,154.768 273.086673,155.14 Z M277.142673,156.964 L277.898673,156.64 C277.718673,156.22 277.334673,155.524 277.034673,155.008 L276.314673,155.284 C276.614673,155.812 276.962673,156.544 277.142673,156.964 Z M272.474673,158.32 L272.966673,157.588 C272.450673,157.252 271.454673,156.724 270.758673,156.376 L270.266673,157.024 C270.998673,157.408 271.982673,157.984 272.474673,158.32 Z M274.106673,163.816 C274.502673,162.964 274.910673,162.172 275.198673,162.172 C275.426673,162.172 275.774673,162.568 276.194673,162.928 C276.842673,163.456 277.538673,163.672 278.630673,163.672 C279.230673,163.672 280.526673,163.624 281.078673,163.588 C281.090673,163.336 281.210673,162.892 281.294673,162.652 C280.538673,162.736 279.410673,162.796 278.642673,162.796 C277.646673,162.796 276.986673,162.64 276.398673,162.184 C276.314673,162.112 276.242673,162.04 276.158673,161.98 C277.910673,160.876 279.710673,159.076 280.730673,157.408 L280.118673,157.012 L279.938673,157.06 L273.914673,157.06 L273.914673,157.9 L279.326673,157.9 C278.438673,159.16 276.962673,160.576 275.534673,161.464 C275.426673,161.404 275.318673,161.368 275.198673,161.368 C274.706673,161.368 274.118673,162.04 273.482673,163 L274.106673,163.816 Z M271.418673,163.756 C272.126673,162.64 272.954673,161.164 273.578673,159.916 L272.930673,159.328 C272.258673,160.672 271.310673,162.256 270.662673,163.156 L271.418673,163.756 Z M285.14134,164.008 C286.11334,162.22 286.26934,159.556 286.26934,157.756 L286.26934,155.344 L295.16134,155.344 L295.16134,154.492 L291.15334,154.492 C290.99734,154.072 290.67334,153.388 290.37334,152.872 L289.50934,153.088 C289.73734,153.52 289.98934,154.072 290.14534,154.492 L285.38134,154.492 L285.38134,157.756 C285.38134,159.448 285.29734,161.812 284.38534,163.516 C284.57734,163.6 284.99734,163.852 285.14134,164.008 Z M295.31734,163.36 L295.31734,162.508 L292.07734,162.508 C293.16934,160.66 294.05734,158.488 294.63334,156.508 L293.69734,156.172 C293.22934,158.224 292.31734,160.66 291.16534,162.508 L286.42534,162.508 L286.42534,163.36 L295.31734,163.36 Z M290.66134,160.552 L291.50134,160.312 C291.32134,159.196 290.87734,157.528 290.46934,156.244 L289.66534,156.46 C290.06134,157.756 290.49334,159.448 290.66134,160.552 Z M288.36934,161.224 L289.19734,160.888 C288.94534,159.784 288.36934,158.116 287.84134,156.82 L287.07334,157.132 C287.56534,158.416 288.14134,160.12 288.36934,161.224 Z M1.676,192.984 C2.588,191.964 2.996,190.596 3.176,189.264 L6.176,189.264 L6.176,192.804 L7.064,192.804 L7.064,189.264 L10.292,189.264 L10.292,191.7 C10.292,191.928 10.208,192 9.968,192.012 C9.91815385,192.012 9.83635503,192.012639 9.72968229,192.01318 L9.1871097,192.013071 C8.86627219,192.011006 8.48369231,192.004615 8.096,191.988 C8.216,192.228 8.36,192.612 8.396,192.852 C9.524,192.864 10.22,192.852 10.628,192.708 C11.012,192.552 11.168,192.288 11.168,191.712 L11.168,182.808 L2.432,182.808 L2.432,187.128 C2.432,188.796 2.312,190.908 0.992,192.396 C1.184,192.504 1.544,192.804 1.676,192.984 Z M6.176,185.58 L3.308,185.58 L3.308,183.66 L6.176,183.66 L6.176,185.58 Z M10.292,185.58 L7.064,185.58 L7.064,183.66 L10.292,183.66 L10.292,185.58 Z M10.292,188.412 L7.064,188.412 L7.064,186.42 L10.292,186.42 L10.292,188.412 Z M6.176,188.412 L3.26,188.412 C3.296,187.968 3.308,187.524 3.308,187.128 L3.308,186.42 L6.176,186.42 L6.176,188.412 Z M17.954667,192.876 L17.954667,187.116 C18.518667,186.348 18.986667,185.532 19.406667,184.668 L25.946667,184.668 L25.946667,183.816 L19.766667,183.816 C19.982667,183.276 20.186667,182.724 20.342667,182.184 L19.430667,181.956 C19.262667,182.568 19.046667,183.204 18.794667,183.816 L15.518667,183.816 L15.518667,184.668 L18.398667,184.668 C17.654667,186.192 16.598667,187.608 15.230667,188.58 C15.374667,188.772 15.602667,189.144 15.686667,189.384 C16.190667,189.024 16.658667,188.628 17.078667,188.172 L17.078667,192.876 L17.954667,192.876 Z M25.946667,192.636 L25.946667,191.796 L22.778667,191.796 L22.778667,188.424 L25.478667,188.424 L25.478667,187.584 L22.778667,187.584 L22.778667,185.292 L21.890667,185.292 L21.890667,187.584 L19.202667,187.584 L19.202667,188.424 L21.890667,188.424 L21.890667,191.796 L18.734667,191.796 L18.734667,192.636 L25.946667,192.636 Z M33.849334,186.612 C34.401334,185.976 34.893334,185.148 35.313334,184.224 L40.257334,184.224 L40.257334,183.36 L35.673334,183.36 C35.817334,182.952 35.961334,182.508 36.081334,182.076 L35.205334,181.908 C34.773334,183.552 34.041334,185.112 33.081334,186.12 C33.309334,186.228 33.693334,186.48 33.849334,186.612 Z M32.805334,192.828 L32.805334,182.124 L31.929334,182.124 L31.929334,192.828 L32.805334,192.828 Z M30.789334,191.34 L30.789334,183.408 L29.949334,183.408 L29.949334,191.34 L30.789334,191.34 Z M37.905334,187.032 L38.505334,186.396 C38.061334,185.94 37.173334,185.208 36.453334,184.656 L35.865334,185.184 C36.573334,185.748 37.461334,186.552 37.905334,187.032 Z M34.881334,192.912 L34.881334,192.276 L39.045334,192.276 L39.045334,192.864 L39.945334,192.864 L39.945334,187.464 L34.017334,187.464 L34.017334,192.912 L34.881334,192.912 Z M36.561334,191.448 L34.881334,191.448 L34.881334,188.316 L36.561334,188.316 L36.561334,191.448 Z M39.045334,191.448 L37.389334,191.448 L37.389334,188.316 L39.045334,188.316 L39.045334,191.448 Z M52.504001,192.636 C52.924001,192.504 53.104001,192.228 53.104001,191.592 L53.104001,185.232 L54.556001,185.232 L54.556001,184.356 L53.104001,184.356 L53.104001,182.028 L52.216001,182.028 L52.216001,184.356 L48.340001,184.356 L48.340001,185.232 L52.216001,185.232 L52.216001,191.592 C52.216001,191.832 52.120001,191.904 51.880001,191.916 C51.8045724,191.919429 51.6782051,191.921878 51.5146132,191.923067 L51.089501,191.9235 C50.719001,191.922 50.266001,191.916 49.804001,191.904 C49.948001,192.144 50.080001,192.552 50.128001,192.792 C51.328001,192.804 52.084001,192.792 52.504001,192.636 Z M44.920001,191.664 L44.920001,190.716 L47.800001,190.716 L47.800001,182.964 L44.080001,182.964 L44.080001,191.664 L44.920001,191.664 Z M46.960001,186.384 L44.920001,186.384 L44.920001,183.768 L46.960001,183.768 L46.960001,186.384 Z M50.572001,189.504 L51.352001,189.048 C50.956001,188.328 50.116001,187.104 49.480001,186.192 L48.748001,186.576 C49.384001,187.5 50.188001,188.772 50.572001,189.504 Z M46.960001,189.9 L44.920001,189.9 L44.920001,187.188 L46.960001,187.188 L46.960001,189.9 Z M58.342668,192.984 C59.254668,191.964 59.662668,190.596 59.842668,189.264 L62.842668,189.264 L62.842668,192.804 L63.730668,192.804 L63.730668,189.264 L66.958668,189.264 L66.958668,191.7 C66.958668,191.928 66.874668,192 66.634668,192.012 C66.5848218,192.012 66.503023,192.012639 66.3963503,192.01318 L65.8537777,192.013071 C65.5329402,192.011006 65.1503603,192.004615 64.762668,191.988 C64.882668,192.228 65.026668,192.612 65.062668,192.852 C66.190668,192.864 66.886668,192.852 67.294668,192.708 C67.678668,192.552 67.834668,192.288 67.834668,191.712 L67.834668,182.808 L59.098668,182.808 L59.098668,187.128 C59.098668,188.796 58.978668,190.908 57.658668,192.396 C57.850668,192.504 58.210668,192.804 58.342668,192.984 Z M62.842668,185.58 L59.974668,185.58 L59.974668,183.66 L62.842668,183.66 L62.842668,185.58 Z M66.958668,185.58 L63.730668,185.58 L63.730668,183.66 L66.958668,183.66 L66.958668,185.58 Z M66.958668,188.412 L63.730668,188.412 L63.730668,186.42 L66.958668,186.42 L66.958668,188.412 Z M62.842668,188.412 L59.926668,188.412 C59.962668,187.968 59.974668,187.524 59.974668,187.128 L59.974668,186.42 L62.842668,186.42 L62.842668,188.412 Z M81.185335,192.708 C82.445335,192.708 82.733335,192.072 82.889335,190.272 C82.613335,190.2 82.229335,190.044 82.013335,189.876 C81.917335,191.436 81.797335,191.82 81.125335,191.82 L78.605335,191.82 C77.885335,191.82 77.753335,191.676 77.753335,190.98 L77.753335,189.696 L81.725335,189.696 L81.725335,183.696 L77.753335,183.696 L77.753335,181.98 L76.817335,181.98 L76.817335,183.696 L72.953335,183.696 L72.953335,190.428 L73.865335,190.428 L73.865335,189.696 L76.817335,189.696 L76.817335,190.956 C76.817335,192.36 77.213335,192.708 78.545335,192.708 L81.185335,192.708 Z M76.817335,186.276 L73.865335,186.276 L73.865335,184.56 L76.817335,184.56 L76.817335,186.276 Z M80.837335,186.276 L77.753335,186.276 L77.753335,184.56 L80.837335,184.56 L80.837335,186.276 Z M76.817335,188.82 L73.865335,188.82 L73.865335,187.104 L76.817335,187.104 L76.817335,188.82 Z M80.837335,188.82 L77.753335,188.82 L77.753335,187.104 L80.837335,187.104 L80.837335,188.82 Z M88.836002,192.672 L89.652002,191.976 C88.908002,191.1 87.828002,190.008 86.964002,189.312 L86.184002,189.996 C87.036002,190.692 88.068002,191.724 88.836002,192.672 Z M100.974669,193.008 C101.946669,191.22 102.102669,188.556 102.102669,186.756 L102.102669,184.344 L110.994669,184.344 L110.994669,183.492 L106.986669,183.492 C106.830669,183.072 106.506669,182.388 106.206669,181.872 L105.342669,182.088 C105.570669,182.52 105.822669,183.072 105.978669,183.492 L101.214669,183.492 L101.214669,186.756 C101.214669,188.448 101.130669,190.812 100.218669,192.516 C100.410669,192.6 100.830669,192.852 100.974669,193.008 Z M111.150669,192.36 L111.150669,191.508 L107.910669,191.508 C109.002669,189.66 109.890669,187.488 110.466669,185.508 L109.530669,185.172 C109.062669,187.224 108.150669,189.66 106.998669,191.508 L102.258669,191.508 L102.258669,192.36 L111.150669,192.36 Z M106.494669,189.552 L107.334669,189.312 C107.154669,188.196 106.710669,186.528 106.302669,185.244 L105.498669,185.46 C105.894669,186.756 106.326669,188.448 106.494669,189.552 Z M104.202669,190.224 L105.030669,189.888 C104.778669,188.784 104.202669,187.116 103.674669,185.82 L102.906669,186.132 C103.398669,187.416 103.974669,189.12 104.202669,190.224 Z M123.697336,188.988 L123.697336,184.752 L121.297336,184.752 C121.669336,184.272 122.041336,183.72 122.317336,183.228 L121.717336,182.832 L121.561336,182.868 L118.249336,182.868 C118.405336,182.604 118.573336,182.364 118.717336,182.1 L117.757336,181.932 C117.217336,183 116.125336,184.296 114.541336,185.208 C114.757336,185.34 115.033336,185.64 115.177336,185.856 C115.477336,185.664 115.753336,185.46 116.029336,185.244 L116.029336,185.508 L122.821336,185.508 L122.821336,186.504 L116.185336,186.504 L116.185336,187.212 L122.821336,187.212 L122.821336,188.232 L115.789336,188.232 L115.789336,188.988 L123.697336,188.988 Z M120.253336,184.752 L116.605336,184.752 C117.013336,184.38 117.373336,183.996 117.709336,183.6 L121.069336,183.6 C120.829336,183.996 120.541336,184.416 120.253336,184.752 Z M120.553336,191.46 L121.273336,190.98 C120.925336,190.416 120.169336,189.624 119.509336,189.06 L118.849336,189.492 C119.485336,190.08 120.229336,190.908 120.553336,191.46 Z M124.429336,192.36 L125.257336,192.012 C125.017336,191.328 124.417336,190.296 123.865336,189.516 L123.085336,189.816 C123.637336,190.608 124.201336,191.676 124.429336,192.36 Z M121.561336,192.732 C122.701336,192.732 122.989336,192.396 123.109336,190.956 C122.857336,190.896 122.497336,190.776 122.293336,190.62 C122.233336,191.772 122.125336,191.928 121.501336,191.928 L118.861336,191.928 C118.093336,191.928 117.949336,191.88 117.949336,191.556 L117.949336,189.816 L117.061336,189.816 L117.061336,191.568 C117.061336,192.492 117.421336,192.732 118.813336,192.732 L121.561336,192.732 Z M115.249336,192.492 C115.681336,191.856 116.137336,190.884 116.437336,190.188 L115.669336,189.84 C115.393336,190.524 114.925336,191.496 114.433336,192.096 L115.249336,192.492 Z M131.012003,192.888 L131.012003,184.74 C131.480003,183.96 131.888003,183.108 132.236003,182.244 L131.396003,181.992 C130.712003,183.804 129.560003,185.58 128.372003,186.72 C128.528003,186.924 128.780003,187.392 128.876003,187.584 C129.308003,187.14 129.752003,186.624 130.160003,186.048 L130.160003,192.888 L131.012003,192.888 Z M136.112003,192.924 L136.112003,189.168 C136.916003,190.476 138.068003,191.724 139.148003,192.42 C139.304003,192.192 139.592003,191.868 139.784003,191.712 C138.632003,191.088 137.420003,189.876 136.628003,188.616 L139.472003,188.616 L139.472003,187.8 L136.112003,187.8 L136.112003,186.312 L138.812003,186.312 L138.812003,182.52 L132.632003,182.52 L132.632003,186.312 L135.224003,186.312 L135.224003,187.8 L131.744003,187.8 L131.744003,188.616 L134.708003,188.616 C133.904003,189.888 132.632003,191.076 131.396003,191.688 C131.600003,191.856 131.864003,192.18 132.020003,192.396 C133.184003,191.724 134.384003,190.524 135.224003,189.204 L135.224003,192.924 L136.112003,192.924 Z M137.924003,185.52 L133.472003,185.52 L133.472003,183.324 L137.924003,183.324 L137.924003,185.52 Z M153.61467,185.508 L153.61467,184.776 L151.57467,184.776 C151.73067,184.512 151.88667,184.2 152.05467,183.888 L151.17867,183.696 C151.08267,184.008 150.89067,184.428 150.73467,184.776 L148.81467,184.776 L149.22267,184.644 C149.13867,184.392 148.95867,183.972 148.81467,183.66 L153.14667,183.66 L153.14667,182.928 L150.47067,182.928 C150.36267,182.628 150.20667,182.232 150.06267,181.932 L149.28267,182.136 C149.39067,182.376 149.48667,182.664 149.57067,182.928 L146.99067,182.928 L146.99067,183.66 L148.75467,183.66 L148.05867,183.84 C148.19067,184.128 148.33467,184.5 148.41867,184.776 L146.47467,184.776 L146.47467,185.508 L153.61467,185.508 Z M143.90667,192.888 L143.90667,183.252 L145.58667,183.252 C145.31067,184.044 144.93867,185.1 144.56667,185.94 C145.49067,186.9 145.71867,187.716 145.73067,188.376 C145.73067,188.748 145.64667,189.072 145.46667,189.204 C145.35867,189.276 145.21467,189.312 145.05867,189.312 C144.86667,189.336 144.60267,189.324 144.31467,189.3 C144.44667,189.528 144.53067,189.864 144.54267,190.092 C144.81867,190.104 145.14267,190.104 145.39467,190.08 C145.63467,190.044 145.86267,189.972 146.03067,189.852 C146.37867,189.6 146.52267,189.096 146.52267,188.448 C146.52267,187.704 146.29467,186.84 145.37067,185.844 C145.80267,184.908 146.25867,183.732 146.65467,182.76 L146.06667,182.4 L145.93467,182.448 L143.11467,182.448 L143.11467,192.888 L143.90667,192.888 Z M150.51867,192.912 L150.51867,191.172 L153.67467,191.172 L153.67467,190.416 L150.51867,190.416 L150.51867,189.564 L152.72667,189.564 L152.72667,186.18 L147.33867,186.18 L147.33867,189.564 L149.64267,189.564 L149.64267,190.416 L146.48667,190.416 L146.48667,191.172 L149.64267,191.172 L149.64267,192.912 L150.51867,192.912 Z M151.85067,187.596 L148.16667,187.596 L148.16667,186.804 L151.85067,186.804 L151.85067,187.596 Z M151.85067,188.94 L148.16667,188.94 L148.16667,188.16 L151.85067,188.16 L151.85067,188.94 Z M157.569337,185.208 C157.977337,184.8 158.361337,184.284 158.697337,183.72 L159.201337,183.72 C159.417337,184.176 159.633337,184.716 159.717337,185.076 L160.497337,184.788 C160.437337,184.512 160.269337,184.092 160.077337,183.72 L162.249337,183.72 L162.249337,182.964 L159.129337,182.964 C159.273337,182.688 159.393337,182.412 159.501337,182.124 L158.661337,181.908 C158.253337,182.952 157.581337,184.008 156.837337,184.692 C157.041337,184.812 157.413337,185.064 157.569337,185.208 Z M164.733337,192.768 C165.141337,192.624 165.261337,192.396 165.261337,191.868 L165.261337,189.948 L167.505337,189.948 L167.505337,189.168 L165.261337,189.168 L165.261337,188.112 L167.817337,188.112 L167.817337,187.332 L162.825337,187.332 L162.825337,186.264 L166.689337,186.264 L166.689337,185.508 L162.825337,185.508 L162.825337,184.68 L162.633337,184.68 C162.897337,184.404 163.149337,184.068 163.377337,183.72 L164.193337,183.72 C164.553337,184.176 164.901337,184.752 165.033337,185.148 L165.801337,184.812 C165.669337,184.512 165.417337,184.092 165.141337,183.72 L167.697337,183.72 L167.697337,182.964 L163.809337,182.964 C163.953337,182.676 164.061337,182.4 164.169337,182.1 L163.317337,181.908 C162.981337,182.904 162.333337,183.876 161.601337,184.5 C161.673337,184.548 161.805337,184.62 161.925337,184.704 L161.925337,185.508 L158.181337,185.508 L158.181337,186.264 L161.925337,186.264 L161.925337,187.332 L157.005337,187.332 L157.005337,188.112 L164.361337,188.112 L164.361337,189.168 L157.389337,189.168 L157.389337,189.948 L164.361337,189.948 L164.361337,191.856 C164.361337,192.024 164.313337,192.072 164.097337,192.072 C164.007337,192.082 163.83192,192.087833 163.598865,192.0895 L163.293309,192.0895 C163.018587,192.087833 162.697337,192.082 162.357337,192.072 C162.489337,192.312 162.633337,192.648 162.681337,192.912 C163.677337,192.912 164.337337,192.9 164.733337,192.768 Z M161.121337,192.3 L161.805337,191.736 C161.409337,191.184 160.509337,190.44 159.753337,189.96 L159.105337,190.464 C159.873337,190.98 160.737337,191.748 161.121337,192.3 Z M171.676004,192.984 C172.588004,191.964 172.996004,190.596 173.176004,189.264 L176.176004,189.264 L176.176004,192.804 L177.064004,192.804 L177.064004,189.264 L180.292004,189.264 L180.292004,191.7 C180.292004,191.928 180.208004,192 179.968004,192.012 C179.918158,192.012 179.836359,192.012639 179.729686,192.01318 L179.187114,192.013071 C178.866276,192.011006 178.483696,192.004615 178.096004,191.988 C178.216004,192.228 178.360004,192.612 178.396004,192.852 C179.524004,192.864 180.220004,192.852 180.628004,192.708 C181.012004,192.552 181.168004,192.288 181.168004,191.712 L181.168004,182.808 L172.432004,182.808 L172.432004,187.128 C172.432004,188.796 172.312004,190.908 170.992004,192.396 C171.184004,192.504 171.544004,192.804 171.676004,192.984 Z M176.176004,185.58 L173.308004,185.58 L173.308004,183.66 L176.176004,183.66 L176.176004,185.58 Z M180.292004,185.58 L177.064004,185.58 L177.064004,183.66 L180.292004,183.66 L180.292004,185.58 Z M180.292004,188.412 L177.064004,188.412 L177.064004,186.42 L180.292004,186.42 L180.292004,188.412 Z M176.176004,188.412 L173.260004,188.412 C173.296004,187.968 173.308004,187.524 173.308004,187.128 L173.308004,186.42 L176.176004,186.42 L176.176004,188.412 Z M194.518671,192.708 C195.778671,192.708 196.066671,192.072 196.222671,190.272 C195.946671,190.2 195.562671,190.044 195.346671,189.876 C195.250671,191.436 195.130671,191.82 194.458671,191.82 L191.938671,191.82 C191.218671,191.82 191.086671,191.676 191.086671,190.98 L191.086671,189.696 L195.058671,189.696 L195.058671,183.696 L191.086671,183.696 L191.086671,181.98 L190.150671,181.98 L190.150671,183.696 L186.286671,183.696 L186.286671,190.428 L187.198671,190.428 L187.198671,189.696 L190.150671,189.696 L190.150671,190.956 C190.150671,192.36 190.546671,192.708 191.878671,192.708 L194.518671,192.708 Z M190.150671,186.276 L187.198671,186.276 L187.198671,184.56 L190.150671,184.56 L190.150671,186.276 Z M194.170671,186.276 L191.086671,186.276 L191.086671,184.56 L194.170671,184.56 L194.170671,186.276 Z M190.150671,188.82 L187.198671,188.82 L187.198671,187.104 L190.150671,187.104 L190.150671,188.82 Z M194.170671,188.82 L191.086671,188.82 L191.086671,187.104 L194.170671,187.104 L194.170671,188.82 Z M204.125338,192.912 C206.153338,191.556 207.581338,189.468 208.397338,186.66 L209.213338,186.66 C208.985338,190.152 208.745338,191.52 208.421338,191.844 C208.313338,192 208.205338,192.024 208.013338,192.024 C207.797338,192.024 207.365338,192.012 206.873338,191.964 C207.005338,192.204 207.089338,192.564 207.101338,192.816 C207.617338,192.84 208.097338,192.84 208.385338,192.804 C208.733338,192.78 208.961338,192.684 209.189338,192.408 C209.609338,191.904 209.861338,190.44 210.101338,186.24 C210.125338,186.132 210.137338,185.82 210.137338,185.82 L205.337338,185.82 C206.513338,185.064 207.773338,184.104 209.045338,182.952 L208.373338,182.448 L208.205338,182.52 L203.393338,182.52 L203.393338,183.372 L207.245338,183.372 C206.213338,184.32 205.049338,185.124 204.653338,185.376 C204.185338,185.676 203.753338,185.916 203.453338,185.964 C203.573338,186.18 203.765338,186.612 203.825338,186.804 C203.921338,186.708 204.317338,186.66 204.869338,186.66 L205.709338,186.66 C205.217338,187.968 204.353338,189.06 203.273338,189.768 L203.117338,189.084 L201.833338,189.564 L201.833338,185.712 L203.153338,185.712 L203.153338,184.872 L201.833338,184.872 L201.833338,182.1 L200.993338,182.1 L200.993338,184.872 L199.529338,184.872 L199.529338,185.712 L200.993338,185.712 L200.993338,189.864 C200.369338,190.092 199.805338,190.284 199.361338,190.428 L199.649338,191.328 C200.693338,190.932 202.037338,190.392 203.297338,189.888 L203.273338,189.792 C203.465338,189.924 203.789338,190.152 203.897338,190.284 C205.049338,189.456 206.021338,188.196 206.561338,186.66 L207.569338,186.66 C206.825338,189.216 205.469338,191.196 203.441338,192.396 C203.645338,192.504 203.981338,192.768 204.125338,192.912 Z M224.304005,187.224 L224.304005,186.492 L219.576005,186.492 C219.444005,186.24 219.264005,185.952 219.084005,185.724 L222.984005,185.724 L222.984005,182.4 L215.124005,182.4 L215.124005,185.724 L218.940005,185.724 L218.268005,185.952 C218.388005,186.108 218.520005,186.3 218.628005,186.492 L213.768005,186.492 L213.768005,187.224 L224.304005,187.224 Z M222.108005,183.756 L215.976005,183.756 L215.976005,183.012 L222.108005,183.012 L222.108005,183.756 Z M222.108005,185.112 L215.976005,185.112 L215.976005,184.344 L222.108005,184.344 L222.108005,185.112 Z M219.048005,192.804 C219.396005,192.696 219.504005,192.504 219.504005,192.06 L219.504005,190.296 L222.756005,190.296 L222.756005,187.848 L215.400005,187.848 L215.400005,190.296 L218.616005,190.296 L218.616005,192.036 C218.616005,192.168 218.580005,192.216 218.412005,192.228 L218.160689,192.227352 C217.895165,192.22584 217.484405,192.2208 217.056005,192.204 C217.152005,192.42 217.272005,192.696 217.308005,192.924 L217.783877,192.92304 C218.372165,192.9192 218.779205,192.9 219.048005,192.804 Z M221.868005,189.636 L216.264005,189.636 L216.264005,188.508 L221.868005,188.508 L221.868005,189.636 Z M214.272005,192.72 C215.304005,192.3 216.564005,191.616 217.380005,190.932 L216.564005,190.62 C215.856005,191.184 214.668005,191.736 213.636005,192.084 C213.816005,192.228 214.140005,192.552 214.272005,192.72 Z M223.668005,192.756 L224.268005,192.168 C223.548005,191.688 222.168005,191.04 221.088005,190.656 L220.524005,191.172 C221.616005,191.592 222.996005,192.276 223.668005,192.756 Z M229.554672,192.732 C230.574672,192.732 231.390672,191.916 231.390672,190.896 C231.390672,189.888 230.574672,189.072 229.554672,189.072 C228.558672,189.072 227.730672,189.888 227.730672,190.896 C227.730672,191.916 228.558672,192.732 229.554672,192.732 Z M229.554672,192.12 C228.894672,192.12 228.342672,191.58 228.342672,190.896 C228.342672,190.236 228.894672,189.684 229.554672,189.684 C230.238672,189.684 230.778672,190.236 230.778672,190.896 C230.778672,191.58 230.238672,192.12 229.554672,192.12 Z" id="path-1"></path>
        <filter x="-4.0%" y="-16.5%" width="108.2%" height="133.7%" filterUnits="objectBoundingBox" id="filter-2">
            <feMorphology radius="1" operator="dilate" in="SourceAlpha" result="shadowSpreadOuter1"></feMorphology>
            <feOffset dx="0" dy="0" in="shadowSpreadOuter1" result="shadowOffsetOuter1"></feOffset>
            <feGaussianBlur stdDeviation="2.5" in="shadowOffsetOuter1" result="shadowBlurOuter1"></feGaussianBlur>
            <feColorMatrix values="0 0 0 0 1   0 0 0 0 1   0 0 0 0 1  0 0 0 1 0" type="matrix" in="shadowBlurOuter1"></feColorMatrix>
        </filter>
        <path d="M8.1,83.82 C13.12,82.54 17.24,79.94 18.96,74.74 L17.4,74.04 L17,74.12 L14.62,74.12 C14.94,73.7 15.22,73.3 15.48,72.86 L13.74,72.52 C15.62,71.3 17.14,69.68 18.08,67.54 L16.54,66.78 L16.14,66.86 L13.42,66.86 C13.78,66.44 14.12,66 14.44,65.58 L12.04,65.06 C11.08,66.46 9.34,68.02 6.92,69.16 C7.44,69.5 8.16,70.26 8.5,70.8 C9.6,70.18 10.56,69.54 11.4,68.82 L14.72,68.82 C14.24,69.44 13.66,69.98 12.98,70.48 C12.48,70.1 11.88,69.74 11.36,69.46 L9.62,70.58 C10.12,70.88 10.64,71.28 11.1,71.64 C9.9,72.24 8.56,72.72 7.18,73.04 C7.6,73.48 8.14,74.28 8.4,74.84 C9.88,74.44 11.3,73.88 12.6,73.2 C11.52,74.72 9.76,76.26 7.28,77.36 C7.78,77.74 8.46,78.54 8.74,79.06 C10.42,78.2 11.78,77.18 12.9,76.1 L15.86,76.1 C15.4,76.96 14.8,77.7 14.12,78.38 C13.58,77.98 12.96,77.58 12.44,77.28 L10.62,78.48 C11.2,78.82 11.88,79.28 12.4,79.74 C10.8,80.78 8.9,81.5 6.88,81.92 C7.3,82.4 7.86,83.24 8.1,83.82 Z M5.34,83.74 L5.34,75.74 C5.8,76.52 6.24,77.34 6.46,77.88 L7.76,75.98 C7.42,75.52 5.9,73.8 5.34,73.26 L5.34,72.92 L7.58,72.92 L7.58,70.7 L5.34,70.7 L5.34,67.84 C6.16,67.62 6.94,67.38 7.66,67.1 L6.3,65.16 C4.8,65.84 2.56,66.42 0.5,66.78 C0.76,67.3 1.08,68.08 1.16,68.62 C1.8,68.54 2.44,68.42 3.12,68.3 L3.12,70.7 L0.28,70.7 L0.28,72.92 L2.5,72.92 C1.92,74.84 0.96,77 0,78.28 C0.34,78.88 0.88,79.88 1.08,80.56 C1.84,79.44 2.52,77.84 3.12,76.14 L3.12,83.74 L5.34,83.74 Z M32.9777778,83.72 C35.7977778,80.92 36.6377778,76.68 36.9177778,71.66 L38.9777778,71.66 C38.7977778,77.92 38.5977778,80.32 38.1577778,80.88 C37.9577778,81.16 37.7577778,81.22 37.4177778,81.22 L37.1472143,81.2195192 C36.6824059,81.2173554 35.9668687,81.2054545 35.1977778,81.14 C35.5977778,81.8 35.8577778,82.78 35.8977778,83.46 C36.9377778,83.5 37.9577778,83.5 38.5777778,83.4 C39.2977778,83.26 39.7577778,83.06 40.2377778,82.36 C40.8977778,81.44 41.1177778,78.52 41.3177778,70.46 C41.3177778,70.16 41.3377778,69.38 41.3377778,69.38 L36.9977778,69.38 C37.0177778,68.1 37.0377778,66.78 37.0377778,65.42 L34.6777778,65.42 C34.6777778,66.78 34.6777778,68.12 34.6577778,69.38 L32.4177778,69.38 L32.4177778,71.66 L34.5777778,71.66 C34.4377778,74.82 33.9977778,77.58 32.8377778,79.76 C32.4777778,78.36 31.6777778,76.26 30.9777778,74.64 L29.0777778,75.16 C29.3777778,75.92 29.6777778,76.78 29.9777778,77.64 L26.5777778,78.42 C27.2377778,76.88 27.8377778,75.08 28.2577778,73.38 L32.1777778,73.38 L32.1777778,71.22 L23.3577778,71.22 L23.3577778,73.38 L25.8177778,73.38 C25.3777778,75.5 24.6777778,77.52 24.4177778,78.12 C24.0977778,78.84 23.8177778,79.3 23.4377778,79.44 C23.6977778,80.02 24.0777778,81.1 24.1977778,81.56 L24.236901,81.5360775 L24.236901,81.5360775 L24.318637,81.4884919 C24.9105778,81.1556444 25.9671111,80.8146667 30.5777778,79.62 C30.6777778,79.96 30.7577778,80.28 30.8177778,80.56 L32.7177778,79.98 C32.2977778,80.66 31.7977778,81.32 31.2177778,81.9 C31.7977778,82.28 32.5977778,83.12 32.9777778,83.72 Z M31.8177778,68.7 L31.8177778,66.6 L23.9977778,66.6 L23.9977778,68.7 L31.8177778,68.7 Z M47.8155556,83.94 C49.4755556,80.84 49.7555556,75.94 49.7555556,72.74 L49.7555556,69.62 L64.1155556,69.62 L64.1155556,67.36 L57.6555556,67.36 C57.3755556,66.56 56.9755556,65.6 56.6155556,64.82 L54.2155556,65.38 C54.4755556,65.98 54.7555556,66.68 54.9755556,67.36 L47.3355556,67.36 L47.3355556,72.74 C47.3355556,75.62 47.2155556,79.74 45.7155556,82.56 C46.2955556,82.8 47.3755556,83.52 47.8155556,83.94 Z M64.3355556,82.96 L64.3355556,80.72 L59.3755556,80.72 C61.1355556,77.8 62.5955556,74.36 63.5355556,71.18 L60.9755556,70.34 C60.2555556,73.72 58.7955556,77.74 56.8555556,80.72 L49.4555556,80.72 L49.4555556,82.96 L64.3355556,82.96 Z M55.8755556,77.84 L58.1755556,77.22 C57.8555556,75.32 57.1155556,72.62 56.4355556,70.42 L54.2755556,70.98 C54.8955556,73.14 55.6355556,76 55.8755556,77.84 Z M52.4355556,79.12 L54.6755556,78.18 C54.2155556,76.32 53.2755556,73.58 52.4155556,71.4 L50.3155556,72.22 C51.1155556,74.38 52.0555556,77.26 52.4355556,79.12 Z M70.2933333,83.84 C71.7333333,82.28 72.4533333,80.08 72.8133333,77.9 L76.8933333,77.9 L76.8933333,83.48 L79.2933333,83.48 L79.2933333,77.9 L83.5133333,77.9 L83.5133333,80.9 C83.5133333,81.26 83.3733333,81.38 82.9933333,81.38 C82.6333333,81.38 81.3133333,81.4 80.1933333,81.34 C80.4933333,81.96 80.8733333,82.98 80.9533333,83.62 C82.7533333,83.64 83.9733333,83.6 84.7933333,83.2 C85.5933333,82.84 85.8733333,82.2 85.8733333,80.92 L85.8733333,66.4 L70.7733333,66.4 L70.7733333,73.54 C70.7733333,76.34 70.5933333,79.9 68.4133333,82.3 C68.9533333,82.58 69.9133333,83.4 70.2933333,83.84 Z M76.8933333,70.98 L73.1333333,70.98 L73.1333333,68.66 L76.8933333,68.66 L76.8933333,70.98 Z M83.5133333,70.98 L79.2933333,70.98 L79.2933333,68.66 L83.5133333,68.66 L83.5133333,70.98 Z M83.5133333,75.66 L79.2933333,75.66 L79.2933333,73.2 L83.5133333,73.2 L83.5133333,75.66 Z M76.8933333,75.66 L73.0733333,75.66 C73.1133333,74.92 73.1333333,74.2 73.1333333,73.56 L73.1333333,73.2 L76.8933333,73.2 L76.8933333,75.66 Z" id="path-3"></path>
        <filter x="-11.1%" y="-48.7%" width="121.5%" height="202.4%" filterUnits="objectBoundingBox" id="filter-4">
            <feMorphology radius="1" operator="dilate" in="SourceAlpha" result="shadowSpreadOuter1"></feMorphology>
            <feOffset dx="0" dy="0" in="shadowSpreadOuter1" result="shadowOffsetOuter1"></feOffset>
            <feGaussianBlur stdDeviation="2" in="shadowOffsetOuter1" result="shadowBlurOuter1"></feGaussianBlur>
            <feColorMatrix values="0 0 0 0 1   0 0 0 0 1   0 0 0 0 1  0 0 0 0.795509178 0" type="matrix" in="shadowBlurOuter1"></feColorMatrix>
        </filter>
    </defs>
    <g id="页面-1" stroke="none" stroke-width="1" fill="none" fill-rule="evenodd">
        <g id="移动应用" transform="translate(7.440000, 0.000000)">
            <g id="编组-3" transform="translate(0.560000, 0.000000)">
                <line x1="0.5" y1="0.5" x2="40.5" y2="0.5" id="直线-6" stroke="#01349D" stroke-linecap="square"></line>
                <path d="M1.692,18 L1.692,14.535 C1.692,13.842 1.629,13.14 1.593,12.474 L1.629,12.474 L2.34,13.833 L4.743,18 L5.598,18 L5.598,11.403 L4.806,11.403 L4.806,14.832 C4.806,15.516 4.869,16.254 4.914,16.92 L4.869,16.92 L4.167,15.561 L1.764,11.403 L0.9,11.403 L0.9,18 L1.692,18 Z M10.556,18 L10.556,15.435 L12.536,11.403 L11.672,11.403 L10.817,13.266 C10.619,13.752 10.394,14.211 10.16,14.706 L10.124,14.706 C9.89,14.211 9.692,13.752 9.476,13.266 L8.63,11.403 L7.739,11.403 L9.719,15.435 L9.719,18 L10.556,18 Z M16.585,18 L16.585,15.435 L18.565,11.403 L17.701,11.403 L16.846,13.266 C16.648,13.752 16.423,14.211 16.189,14.706 L16.153,14.706 C15.919,14.211 15.721,13.752 15.505,13.266 L14.659,11.403 L13.768,11.403 L15.748,15.435 L15.748,18 L16.585,18 Z M26.186,18 L26.186,12.105 L28.184,12.105 L28.184,11.403 L23.351,11.403 L23.351,12.105 L25.349,12.105 L25.349,18 L26.186,18 Z M34.519,18 L34.519,17.289 L31.45,17.289 L31.45,14.886 L33.952,14.886 L33.952,14.175 L31.45,14.175 L31.45,12.105 L34.42,12.105 L34.42,11.403 L30.613,11.403 L30.613,18 L34.519,18 Z M39.648,18.117 C40.503,18.117 41.151,17.775 41.673,17.172 L41.214,16.65 C40.791,17.109 40.314,17.388 39.684,17.388 C38.424,17.388 37.632,16.344 37.632,14.679 C37.632,13.032 38.46,12.006 39.711,12.006 C40.278,12.006 40.719,12.267 41.061,12.636 L41.511,12.096 C41.133,11.673 40.503,11.277 39.702,11.277 C38.028,11.277 36.777,12.573 36.777,14.706 C36.777,16.848 38.01,18.117 39.648,18.117 Z M44.984,18 L44.984,14.886 L48.062,14.886 L48.062,18 L48.89,18 L48.89,11.403 L48.062,11.403 L48.062,14.166 L44.984,14.166 L44.984,11.403 L44.147,11.403 L44.147,18 L44.984,18 Z M52.741,18 L52.741,14.535 C52.741,13.842 52.678,13.14 52.642,12.474 L52.678,12.474 L53.389,13.833 L55.792,18 L56.647,18 L56.647,11.403 L55.855,11.403 L55.855,14.832 C55.855,15.516 55.918,16.254 55.963,16.92 L55.918,16.92 L55.216,15.561 L52.813,11.403 L51.949,11.403 L51.949,18 L52.741,18 Z M62.136,18.117 C63.792,18.117 64.953,16.794 64.953,14.679 C64.953,12.564 63.792,11.277 62.136,11.277 C60.48,11.277 59.319,12.564 59.319,14.679 C59.319,16.794 60.48,18.117 62.136,18.117 Z M62.136,17.388 C60.948,17.388 60.174,16.326 60.174,14.679 C60.174,13.023 60.948,12.006 62.136,12.006 C63.315,12.006 64.098,13.023 64.098,14.679 C64.098,16.326 63.315,17.388 62.136,17.388 Z M71.342,18 L71.342,17.289 L68.462,17.289 L68.462,11.403 L67.625,11.403 L67.625,18 L71.342,18 Z M75.931,18.117 C77.587,18.117 78.748,16.794 78.748,14.679 C78.748,12.564 77.587,11.277 75.931,11.277 C74.275,11.277 73.114,12.564 73.114,14.679 C73.114,16.794 74.275,18.117 75.931,18.117 Z M75.931,17.388 C74.743,17.388 73.969,16.326 73.969,14.679 C73.969,13.023 74.743,12.006 75.931,12.006 C77.11,12.006 77.893,13.023 77.893,14.679 C77.893,16.326 77.11,17.388 75.931,17.388 Z M84.012,18.117 C84.903,18.117 85.632,17.793 86.055,17.352 L86.055,14.58 L83.895,14.58 L83.895,15.273 L85.29,15.273 L85.29,17.001 C85.029,17.244 84.57,17.388 84.093,17.388 C82.68,17.388 81.897,16.344 81.897,14.679 C81.897,13.032 82.761,12.006 84.084,12.006 C84.759,12.006 85.182,12.285 85.515,12.636 L85.965,12.096 C85.587,11.691 84.984,11.277 84.066,11.277 C82.32,11.277 81.042,12.573 81.042,14.706 C81.042,16.848 82.275,18.117 84.012,18.117 Z M90.779,18 L90.779,15.435 L92.759,11.403 L91.895,11.403 L91.04,13.266 C90.842,13.752 90.617,14.211 90.383,14.706 L90.347,14.706 C90.113,14.211 89.915,13.752 89.699,13.266 L88.853,11.403 L87.962,11.403 L89.942,15.435 L89.942,18 L90.779,18 Z" id="NYYTECHNOLOGY" fill="#01349D" fill-rule="nonzero"></path>
            </g>
            <g id="NDES设备移动版通过加上固定车底或者灵活车底，可实现随叫随到灵活部署，设备广泛应用在临时用电、应急保障等用电场景。" fill-rule="nonzero">
                <use fill="black" fill-opacity="1" filter="url(#filter-2)" xlink:href="#path-1"></use>
                <use fill="#01349D" xlink:href="#path-1"></use>
            </g>
            <g fill-rule="nonzero">
                <use fill="black" fill-opacity="1" filter="url(#filter-4)" xlink:href="#path-3"></use>
                <use fill="#01349D" xlink:href="#path-3"></use>
            </g>
        </g>
    </g>
</svg>